<ttFont>
<head>
    <!-- Most of this table will be recalculated by the compiler -->
    <tableVersion value="1.0"/>
    <fontRevision value="0.0"/>
    <checkSumAdjustment value="0xcdf25926"/>
    <magicNumber value="0x5f0f3cf5"/>
    <flags value="00000000 00000011"/>
    <unitsPerEm value="2048"/>
    <created value="Thu May  4 15:34:19 2017"/>
    <modified value="Thu May  4 22:34:22 2017"/>
    <xMin value="-98"/>
    <yMin value="-595"/>
    <xMax value="1689"/>
    <yMax value="2338"/>
<macStyle value="00000000 00000011"/>
    <lowestRecPPEM value="3"/>
    <fontDirectionHint value="2"/>
    <indexToLocFormat value="0"/>
    <glyphDataFormat value="0"/>
  </head>
          <CharString index="0">
            794 916 rmoveto
            127 80 -78 -115 -9 hvcurveto
            -17 -4 -33 -2 -12 vhcurveto
            -451 hlineto
            1 9 7 30 2 8 rrcurveto
            133 31 90 75 128 hhcurveto
            388 -606 rmoveto
            36 callsubr
            88 callgsubr
            -12 -65 -4 -45 -53 vvcurveto
            -263 175 -165 280 258 197 133 201 35 vhcurveto
            return
          </CharString>
          <CharString index="1">
            1284 543 rmoveto
            -15 callgsubr
            231 callgsubr
            -290 210 -206 295 324 207 198 374 66 vhcurveto
            -583 -320 rmoveto
            -144 -89 99 161 57 4 45 10 64 hvcurveto
            38 115 callsubr
            -249 -44 -97 -115 -158 hhcurveto
            return
          </CharString>
          <CharString index="2">
            rmoveto
            -6 -34 -3 -30 -33 vvcurveto
            -284 209 -182 305 291 204 177 304 55 vhcurveto
            178 991 192 callgsubr
            -168 -946 rlineto
            -173 -32 -99 -97 -138 hhcurveto
            -135 -101 84 149 22 4 32 6 31 hvcurveto
            159 898 rlineto
            -285 hlineto
            return
          </CharString>
          <CharString index="3">
            rmoveto
            145 callgsubr
            625 43 callsubr
            -910 -98 callsubr
            910 hlineto
            return
          </CharString>
          <CharString index="4">
            257 585 rlineto
            13 hlineto
            45 -585 rlineto
            -174 868 rmoveto
            -687 -1443 226 callsubr
            155 353 rlineto
            430 hlineto
            27 -353 226 callsubr
            -177 1443 rlineto
            return
          </CharString>
          <CharString index="5">
            244 -398 rmoveto
            267 140 97 287 147 hvcurveto
            577 1117 rlineto
            -296 hlineto
            -395 -851 rlineto
            -16 hlineto
            -95 851 118 callgsubr
            195 -1111 -19 -42 rlineto
            -91 -44 -64 -34 -109 hhcurveto
            -31 -27 2 1 -4 hvcurveto
            -39 -224 rlineto
            -1 7 52 -1 49 hhcurveto
            return
          </CharString>
          <CharString index="6">
            642 1211 202 callsubr
            135 81 -77 -117 -1 hvcurveto
            -17 -2 -21 -3 -14 vhcurveto
            -134 -28 -99 -82 -172 213 callsubr
            -132 -749 rmoveto
            95 531 rlineto
            149 hlineto
            10 52 0 1 7 hvcurveto
            166 -532 rlineto
            301 hlineto
            -187 568 180 54 114 128 31 184 rlinecurve
            6 34 2 33 31 vvcurveto
            252 1 -193 159 -268 hhcurveto
            -495 -98 callsubr
            return
          </CharString>
          <CharString index="7">
            273 hlineto
            114 648 rlineto
            154 28 101 85 125 hhcurveto
            116 69 -75 -102 -28 -3 -30 2 callsubr
            115 654 rlineto
            9 50 4 36 45 vvcurveto
            202 -127 139 -212 -155 -118 -84 -122 -56 vhcurveto
            -15 hlineto
            32 183 185 callsubr
            return
          </CharString>
          <CharString index="8">
            rmoveto
            49 283 rlineto
            -493 hlineto
            -34 -202 rlineto
            229 hlineto
            -124 -700 rlineto
            -209 hlineto
            -36 -201 rlineto
            792 hlineto
            35 201 rlineto
            -320 hlineto
            51 296 rlineto
            222 41 144 125 217 hhcurveto
            88 72 -17 -36 55 hvcurveto
            52 293 rlineto
            31 -49 -64 17 -68 hhcurveto
            -187 -128 -102 -210 -71 hvcurveto
            endchar
          </CharString>
          <CharString index="9">
            hlineto
            -97 callsubr
            return
          </CharString>
          <CharString index="10">
            -254 -85 callgsubr
            return
          </CharString>
          <CharString index="11">
            1290 450 rmoveto
            3 11 2 18 16 vvcurveto
            -289 hlineto
            -1 -5 0 -3 -1 -8 rrcurveto
            -167 -33 -94 -83 -147 hhcurveto
            -151 -94 98 157 38 5 47 8 40 hvcurveto
            49 286 rlineto
            206 38 110 114 159 hhcurveto
            138 92 -88 -132 -28 -1 -18 -2 -22 hvcurveto
            287 hlineto
            4 34 2 23 19 vvcurveto
            277 -209 192 -301 -333 -214 -195 -361 -63 vhcurveto
            46 callsubr
            -310 210 -207 316 308 216 179 301 47 vhcurveto
            return
          </CharString>
          <CharString index="12">
            rmoveto
            32 185 rlineto
            -719 201 callgsubr
            return
          </CharString>
          <CharString index="13">
            124 callsubr
            -24 -2 -30 -4 -24 hvcurveto
            -26 -151 rlineto
            -165 -30 -87 -87 -135 hhcurveto
            -130 -91 92 130 25 2 29 6 28 hvcurveto
            26 150 rlineto
            162 29 88 86 134 hhcurveto
            -74 -925 rmoveto
            280 195 164 275 48 hvcurveto
            57 callgsubr
            7 36 3 37 36 vvcurveto
            88 -25 72 -45 49 vhcurveto
            2 14 rlineto
            50 hlineto
            118 76 66 123 22 hvcurveto
            38 218 rlineto
            -217 hlineto
            -25 -144 rlineto
            -64 -10 -31 -23 -76 -130 -72 42 -159 hhcurveto
            -273 -198 -168 -270 -45 hvcurveto
            -27 -153 rlineto
            -7 -48 -4 -41 -30 vvcurveto
            -255 199 -184 278 vhcurveto
            endchar
          </CharString>
          <CharString index="14">
            783 57 callsubr
            -408 -98 callsubr
            513 hlineto
            375 227 220 431 75 hvcurveto
            4 22 12 69 2 24 rrcurveto
            4 37 2 43 44 vvcurveto
            350 -203 203 -349 vhcurveto
            -49 -242 rmoveto
            195 108 -117 -212 -37 -2 -39 -3 -33 hvcurveto
            -2 -21 -11 -60 -2 -14 rrcurveto
            -286 -50 -129 -137 -244 hhcurveto
            -147 hlineto
            172 956 rlineto
            return
          </CharString>
          <CharString index="15">
            rmoveto
            -19 callsubr
            -95 -518 rlineto
            -7 -40 -3 -36 -31 vvcurveto
            -165 109 -85 210 24 262 2 2 11 vhcurveto
            213 callgsubr
            -1 -12 -191 -1 -29 hhcurveto
            -94 -47 35 68 9 1 9 3 15 hvcurveto
            95 521 rlineto
            405 hlineto
            11 callgsubr
            return
          </CharString>
          <CharString index="16">
            -77 callsubr
            254 hlineto
            -205 356 rlineto
            return
          </CharString>
          <CharString index="17">
            rmoveto
            1 19 1 20 15 vvcurveto
            216 -186 150 -270 -281 -205 -167 -267 -48 vhcurveto
            -5 -21 -19 -111 -2 -12 rrcurveto
            -9 -54 -5 -57 -51 vvcurveto
            -252 180 -162 281 262 199 155 240 46 vhcurveto
            -26 callgsubr
            return
          </CharString>
          <CharString index="18">
            rmoveto
            -212 -35 -66 -90 -99 hhcurveto
            -82 -46 65 118 41 6 56 10 59 hvcurveto
            9 53 rlineto
            210 35 65 96 99 hhcurveto
            82 47 -66 -120 -40 -6 -57 -9 -60 hvcurveto
            -680 109 rmoveto
            78 436 rlineto
            -225 hlineto
            -195 -1103 rlineto
            225 hlineto
            80 448 rlineto
            160 hlineto
            -1 -21 -1 -20 -19 vvcurveto
            -262 123 -149 229 199 166 132 369 60 vhcurveto
            6 30 rlineto
            15 82 7 67 57 vvcurveto
            263 -123 149 -229 -198 -155 -132 -327 -64 vhcurveto
            endchar
          </CharString>
          <CharString index="19">
            rmoveto
            -2 -850 230 callgsubr
            475 1443 242 callgsubr
            -150 -502 -156 -572 rlineto
            -16 hlineto
            -1 744 rlineto
            -218 hlineto
            -266 -744 rlineto
            -16 hlineto
            42 579 27 495 142 callgsubr
            -30 105 callsubr
            301 850 rlineto
            return
          </CharString>
          <CharString index="20">
            rmoveto
            -4 -22 38 callgsubr
            44 2 38 6 44 hvcurveto
            40 232 rmoveto
            4 20 37 callsubr
            -40 -3 -40 -6 -43 hvcurveto
            -847 -159 rmoveto
            -11 -55 -4 -55 -105 vvcurveto
            -290 210 -206 295 324 207 198 374 66 vhcurveto
            -15 callgsubr
            endchar
          </CharString>
          <CharString index="21">
            rmoveto
            -1 -4 50 callgsubr
            11 0 11 1 12 hvcurveto
            33 196 rmoveto
            2 vlineto
            32 callgsubr
            -9 0 -10 -1 -10 hvcurveto
            -761 -124 rmoveto
            -20 callgsubr
            -31 callgsubr
            endchar
          </CharString>
          <CharString index="22">
            775 hmoveto
            95 534 627 909 rlineto
            -316 hlineto
            -404 -617 rlineto
            -16 hlineto
            -190 617 157 callgsubr
            313 -909 -95 -534 rlineto
            return
          </CharString>
          <CharString index="23">
            rmoveto
            -95 callgsubr
            return
          </CharString>
          <CharString index="24">
            1290 358 rmoveto
            -204 hlineto
            -92 -21 -59 -55 -73 hhcurveto
            -77 -50 67 105 30 1 16 9 46 hvcurveto
            494 hlineto
            2 8 15 96 1 6 rrcurveto
            10 61 5 61 43 vvcurveto
            228 10 -113 153 -180 hhcurveto
            -106 -102 -61 -92 -52 hvcurveto
            -5 hlineto
            104 -36 -75 49 -121 hhcurveto
            -182 -144 -148 -213 -29 hvcurveto
            211 hlineto
            87 16 50 51 67 hhcurveto
            62 38 -41 -66 -24 -2 -17 -5 -30 hvcurveto
            -12 -65 -151 -10 rlineto
            -231 -14 -145 -148 -217 vvcurveto
            -167 114 -125 154 131 113 78 124 52 vhcurveto
            6 hlineto
            -127 28 91 -75 126 hhcurveto
            180 144 143 231 45 hvcurveto
            -162 309 rmoveto
            -276 hlineto
            1 7 6 27 1 8 rrcurveto
            124 27 61 75 75 hhcurveto
            70 43 -54 -92 -29 -3 -28 -5 -38 hvcurveto
            -701 -454 rmoveto
            -62 -43 43 62 84 65 63 92 6 hvcurveto
            127 7 -12 -68 rlineto
            -117 -17 -68 -80 -82 hhcurveto
            return
          </CharString>
          <CharString index="25">
            1439 1103 -79 callgsubr
            return
          </CharString>
          <CharString index="26">
            794 -17 rmoveto
            226 162 165 292 51 hvcurveto
            32 180 rlineto
            7 45 5 48 41 vvcurveto
            235 -155 132 -204 -137 -129 -80 -138 -50 vhcurveto
            -18 hlineto
            35 200 rlineto
            -281 hlineto
            -259 -1470 rlineto
            283 hlineto
            103 573 rlineto
            16 hlineto
            -129 17 122 -94 174 hhcurveto
            -79 239 rmoveto
            -127 -84 87 110 29 1 23 4 23 hvcurveto
            30 169 rlineto
            146 27 99 80 126 hhcurveto
            124 76 -83 -111 -29 -2 -30 -4 -25 hvcurveto
            -29 -164 rlineto
            -149 -27 -91 -76 -123 hhcurveto
            return
          </CharString>
          <CharString index="27">
            -84 callsubr
            462 hmoveto
            return
          </CharString>
          <CharString index="28">
            -266 hlineto
            -115 -37 -74 -53 -114 hhcurveto
            -132 -73 80 143 30 6 50 8 43 hvcurveto
            15 88 rlineto
            178 33 86 87 143 hhcurveto
            115 83 -74 -101 hvcurveto
            -17 return
          </CharString>
          <CharString index="29">
            920 804 rmoveto
            605 639 212 callsubr
            -621 -653 rlineto
            -17 hlineto
            117 653 rlineto
            -269 -98 callsubr
            269 hlineto
            80 445 178 177 274 -622 241 callgsubr
            return
          </CharString>
          <CharString index="30">
            -69 callsubr
            107 -208 rlineto
            return
          </CharString>
          <CharString index="31">
            rmoveto
            -310 hlineto
            -408 -787 rlineto
            -13 hlineto
            -172 787 239 callgsubr
            283 -1080 rlineto
            -91 -69 -64 -35 -90 hhcurveto
            -30 -34 3 6 -19 hvcurveto
            -39 -245 rlineto
            -6 9 71 -8 43 hhcurveto
            223 147 114 300 170 hvcurveto
            return
          </CharString>
          <CharString index="32">
            403 1443 90 callsubr
            284 hlineto
            83 458 rlineto
            233 hlineto
            352 246 230 322 266 -185 167 -296 hvcurveto
            -218 -233 rmoveto
            163 hlineto
            160 90 -79 -140 -183 -126 -116 -200 hvcurveto
            -180 hlineto
            return
          </CharString>
          <CharString index="33">
            184 callsubr
            -329 hlineto
            231 1305 rlineto
            -605 hlineto
            -37 -218 rlineto
            332 hlineto
            -195 -1087 rlineto
            -350 hlineto
            -37 -218 rlineto
            return
          </CharString>
          <CharString index="34">
            225 callgsubr
            109 hlineto
            94 55 -53 -91 -123 -80 -78 -125 hvcurveto
            -17 561 rmoveto
            58 324 rlineto
            -235 -55 callsubr
            364 hlineto
            271 185 180 261 212 -131 126 -222 hvcurveto
            626 -779 rmoveto
            194 1103 rlineto
            -245 100 callsubr
          </CharString>
          <CharString index="35">
            -70 callsubr
            461 hmoveto
            27 callgsubr
            endchar
          </CharString>
          <CharString index="36">
            rmoveto
            -59 -322 rlineto
            -159 hlineto
            -121 -61 63 83 108 85 68 144 hvcurveto
            280 -885 rmoveto
            194 1103 rlineto
            -497 hlineto
            -312 -164 -168 -221 -142 81 -105 119 -48 hvcurveto
            -382 -419 rlineto
            314 hlineto
            316 362 rlineto
            128 hlineto
            -65 -362 rlineto
            endchar
          </CharString>
          <CharString index="37">
            -66 callgsubr
            hvcurveto
            return
          </CharString>
          <CharString index="38">
            -78 callgsubr
            18 hlineto
            return
          </CharString>
          <CharString index="39">
            13 callsubr
            107 123 190 23 hvcurveto
            -184 26 callgsubr
            184 80 callgsubr
          </CharString>
          <CharString index="40">
            560 619 rmoveto
            170 hlineto
            141 90 -69 -108 -139 -106 -91 -162 -147 -107 83 117 13 0 6 1 3 hvcurveto
            -270 hlineto
            -2 -10 -1 -34 -18 vvcurveto
            -243 205 -158 312 335 233 189 271 155 -98 111 -160 30 vhcurveto
            2 16 rlineto
            182 21 140 159 186 vvcurveto
            217 -196 146 -291 -277 -200 -152 -245 -47 vhcurveto
            262 hlineto
            105 25 92 63 129 hhcurveto
            143 84 -66 -110 -130 -107 -86 -162 hvcurveto
            -174 hlineto
            return
          </CharString>
          <CharString index="41">
            -166 -29 -29 callsubr
            return
          </CharString>
          <CharString index="42">
            -107 -11 -84 -70 -115 113 callgsubr
            108 5 callsubr
            return
          </CharString>
          <CharString index="43">
            80 67 69 83 83 -67 69 -80 return
          </CharString>
          <CharString index="44">
            1296 -59 callsubr
            return
          </CharString>
          <CharString index="45">
            254 1443 rlineto
            return
          </CharString>
          <CharString index="46">
            rmoveto
            86 hlineto
            105 63 -71 -118 -176 -105 -121 -160 hvcurveto
            -77 hlineto
            42 -237 rmoveto
            343 205 216 357 240 -138 143 -228 hvcurveto
            -90 hlineto
            86 487 104 callgsubr
            1124 hmoveto
            254 1443 104 callgsubr
            endchar
          </CharString>
          <CharString index="47">
            rmoveto
            16 hlineto
            -131 -726 rlineto
            250 hlineto
            193 1103 229 callgsubr
            -587 -717 rlineto
            -14 hlineto
            129 717 rlineto
            -250 -55 callsubr
            270 hlineto
            endchar
          </CharString>
          <CharString index="48">
            rmoveto
            -57 callgsubr
            return
          </CharString>
          <CharString index="49">
            25 hmoveto
            297 hlineto
            391 503 rlineto
            14 hlineto
            218 -503 226 callsubr
            -317 722 571 721 rlineto
            -310 hlineto
            -387 -518 rlineto
            -14 hlineto
            -202 518 rlineto
            -302 hlineto
            303 -715 rlineto
            return
          </CharString>
          <CharString index="50">
            rmoveto
            -11 callgsubr
            -172 hlineto
            183 callsubr
            -82 -36 -26 callsubr
            hhcurveto
            endchar
          </CharString>
          <CharString index="51">
            -16 103 callsubr
            -24 hvcurveto
            -23 35 callgsubr
            53 91 246 12 185 152 44 230 -23 callsubr
            return
          </CharString>
          <CharString index="52">
            hlineto
            -194 -1103 rlineto
            return
          </CharString>
          <CharString index="53">
            -305 -32 callgsubr
            return
          </CharString>
          <CharString index="54">
            137 callgsubr
            73 -87 -87 -71 -73 36 callgsubr
            return
          </CharString>
          <CharString index="55">
            1368 927 rmoveto
            4 34 2 23 19 vvcurveto
            277 -209 192 -301 -333 -214 -195 -361 -63 vhcurveto
            -48 -279 rlineto
            -35 callsubr
            endchar
          </CharString>
          <CharString index="56">
            857 182 rmoveto
            -11 0 -13 1 -11 vhcurveto
            -95 9 79 -62 131 hhcurveto
            66 49 10 10 28 hvcurveto
            35 203 rlineto
            -3 -14 -15 -2 -18 hhcurveto
            -51 -26 23 45 16 2 23 4 21 hvcurveto
            135 767 rlineto
            -278 hlineto
            -37 -209 rlineto
            -19 hlineto
            138 -23 -123 89 -162 hhcurveto
            -238 -125 -167 -261 -52 hvcurveto
            -7 -14 -21 -124 -9 -45 rrcurveto
            -14 -82 -4 -36 -45 vvcurveto
            -229 150 -135 210 146 126 86 113 48 vhcurveto
            -129 709 rmoveto
            118 90 -83 -114 -26 -3 -25 -5 -34 hvcurveto
            -2 -12 -25 -148 -2 -7 rrcurveto
            -141 -29 -100 -80 -113 hhcurveto
            -111 -90 67 127 29 3 26 5 34 hvcurveto
            3 12 25 151 4 14 rrcurveto
            132 28 88 78 116 hhcurveto
            return
          </CharString>
          <CharString index="57">
            hlineto
            -62 callsubr
            return
          </CharString>
          <CharString index="58">
            rmoveto
            53 43 7 12 38 hvcurveto
            28 157 rlineto
            -3 -10 -38 -4 -35 hhcurveto
            -70 -51 42 59 75 51 60 142 89 hvcurveto
            131 81 84 127 29 166 28 160 rcurveline
            7 37 3 37 35 vvcurveto
            257 -201 184 -283 -272 -197 -167 -271 -48 vhcurveto
            60 callsubr
            -7 -35 -2 -34 -43 vvcurveto
            -256 199 -183 272 7 vhcurveto
            15 16 3 6 15 hvcurveto
            -1 -17 rlineto
            -119 -54 -58 -73 -94 vvcurveto
            -120 112 -87 154 vhcurveto
            -54 1354 124 callsubr
            -28 -2 -28 -4 -22 hvcurveto
            -26 -151 rlineto
            -164 -28 -89 -88 -135 hhcurveto
            -130 -91 92 130 25 2 27 6 30 hvcurveto
            26 150 rlineto
            162 29 88 86 134 hhcurveto
            endchar
          </CharString>
          <CharString index="59">
            225 hmoveto
            343 599 rlineto
            57 hlineto
            -107 -599 rlineto
            235 hlineto
            107 599 rlineto
            62 hlineto
            130 -599 rlineto
            248 hlineto
            -160 713 396 730 241 callsubr
            -332 -619 rlineto
            -56 hlineto
            109 619 rlineto
            -235 hlineto
            -109 -619 rlineto
            -61 hlineto
            -114 619 rlineto
            -239 hlineto
            141 -702 -424 -741 rlineto
            return
          </CharString>
          <CharString index="60">
            41 245 rlineto
            return
          </CharString>
          <CharString index="61">
            rmoveto
            -166 -30 -29 callsubr
            -42 -39 10 18 -32 hvcurveto
            377 555 rlineto
            13 -30 8 -34 -38 vvcurveto
            -23 -2 -29 -5 -26 vhcurveto
            -465 51 rmoveto
            161 29 88 87 134 hhcurveto
            47 41 -12 -21 34 hvcurveto
            -379 -561 rlineto
            -18 32 -10 39 43 vvcurveto
            24 3 29 5 29 vhcurveto
            718 634 rmoveto
            -137 hlineto
            -47 -70 rlineto
            37 -72 -85 21 -96 hhcurveto
            -271 -198 -165 -273 -49 hvcurveto
            237 callsubr
            -132 54 -115 93 -79 vhcurveto
            -85 -125 rlineto
            133 hlineto
            44 65 rlineto
            -34 68 81 -19 90 hhcurveto
            277 196 162 277 50 hvcurveto
            57 callgsubr
            7 40 2 37 32 vvcurveto
            128 -50 112 -87 79 vhcurveto
            endchar
          </CharString>
          <CharString index="62">
            -103 hhcurveto
            -107 -60 74 105 11 208 callgsubr
            -36 155 -158 224 hhcurveto
            return
          </CharString>
          <CharString index="63">
            rmoveto
            -719 hlineto
            -38 -219 rlineto
            454 hlineto
            -150 -842 rlineto
            -110 -20 -59 -51 -127 hhcurveto
            -20 -222 2 4 -45 hvcurveto
            -41 -241 rlineto
            -4 51 222 -2 31 hhcurveto
            309 136 113 291 50 hvcurveto
            return
          </CharString>
          <CharString index="64">
            rmoveto
            263 hlineto
            348 56 callsubr
            return
          </CharString>
          <CharString index="65">
            -104 -596 rlineto
            -30 -44 -94 -62 -140 hhcurveto
            -169 -75 108 187 33 hvcurveto
            69 393 rlineto
            -285 hlineto
            -70 -402 rlineto
            -332 -58 154 -209 297 hhcurveto
            128 110 30 57 85 hvcurveto
            14 hlineto
            return
          </CharString>
          <CharString index="66">
            -105 callgsubr
            265 hlineto
            endchar
          </CharString>
          <CharString index="67">
            920 -24 rmoveto
            171 132 122 369 64 hvcurveto
            20 109 9 102 87 vvcurveto
            132 -26 137 -40 69 vhcurveto
            -242 hlineto
            49 -111 21 -111 -128 vvcurveto
            -90 -11 -85 -15 -95 vhcurveto
            -216 -36 -48 -51 -72 hhcurveto
            -58 -24 39 74 23 3 36 7 43 hvcurveto
            60 354 rlineto
            -226 hlineto
            -64 -361 rlineto
            -137 -24 -49 -71 -65 hhcurveto
            -59 -28 36 83 51 11 82 14 74 hvcurveto
            53 303 64 118 115 140 rrcurveto
            -251 hlineto
            -100 -131 -72 -172 -40 -225 rrcurveto
            -19 -99 -12 -104 -74 vvcurveto
            -216 83 -106 161 135 103 74 148 53 vhcurveto
            12 hlineto
            -138 13 84 -84 144 hhcurveto
            return
          </CharString>
          <CharString index="68">
            rmoveto
            -205 hlineto
            223 585 rlineto
            86 hlineto
            640 24 225 callsubr
            -898 hlineto
            -601 -1443 138 callsubr
            135 353 230 callgsubr
            -63 -353 rlineto
            636 hlineto
            42 245 rlineto
            -381 hlineto
            67 367 rlineto
            345 hlineto
            39 228 rlineto
            -345 hlineto
            66 358 rlineto
            endchar
          </CharString>
          <CharString index="69">
            29 callsubr
            74 -87 -86 163 callsubr
            86 hvcurveto
            endchar
          </CharString>
          <CharString index="70">
            -194 rlineto
            -17 hlineto
            -118 194 rlineto
            return
          </CharString>
          <CharString index="71">
            rmoveto
            -331 -356 rlineto
            265 hlineto
            179 208 rlineto
            18 -59 callgsubr
            return
          </CharString>
          <CharString index="72">
            -9 -47 -4 -51 -52 vvcurveto
            -259 147 -188 233 -54 181 callgsubr
            80 68 callsubr
            -57 -51 callgsubr
            -105 12 hvcurveto
            49 84 302 5 211 178 46 297 -28 callsubr
            return
          </CharString>
          <CharString index="73">
            -21 callsubr
            237 hlineto
            return
          </CharString>
          <CharString index="74">
            164 142 199 18 hvcurveto
            return
          </CharString>
          <CharString index="75">
            -105 callsubr
            endchar
          </CharString>
          <CharString index="76">
            rmoveto
            263 hlineto
            349 318 62 callgsubr
            return
          </CharString>
          <CharString index="77">
            28 callsubr
            125 callgsubr
            87 hvcurveto
            return
          </CharString>
          <CharString index="78">
            -87 -86 -135 hhcurveto
            return
          </CharString>
          <CharString index="79">
            rlinecurve
            3 11 2 18 16 vvcurveto
            -289 hlineto
            -1 -5 0 -3 -1 -8 rrcurveto
            -167 -33 -94 -83 -147 hhcurveto
            -151 -94 98 157 38 5 47 8 40 hvcurveto
            49 286 rlineto
            206 38 110 114 159 hhcurveto
            138 92 -88 -132 -28 -1 -18 -2 -22 hvcurveto
            return
          </CharString>
          <CharString index="80">
            rmoveto
            84 -22 callsubr
            return
          </CharString>
          <CharString index="81">
            147 -159 hhcurveto
            -140 -100 -118 -184 -23 hvcurveto
            173 hlineto
            89 12 33 45 48 return
          </CharString>
          <CharString index="82">
            -47 callgsubr
            endchar
          </CharString>
          <CharString index="83">
            -103 hhcurveto
            -107 10 callsubr
            return
          </CharString>
          <CharString index="84">
            rlinecurve
            -79 callsubr
            return
          </CharString>
          <CharString index="85">
            39 -150 162 hhcurveto
            144 108 123 190 23 hvcurveto
            -185 26 callgsubr
            return
          </CharString>
          <CharString index="86">
            40 callsubr
            188 29 callgsubr
            return
          </CharString>
          <CharString index="87">
            rmoveto
            185 hlineto
            231 71 callgsubr
            return
          </CharString>
          <CharString index="88">
            -56 -326 rlineto
            -288 hlineto
            -37 -219 rlineto
            287 hlineto
            return
          </CharString>
          <CharString index="89">
            553 hlineto
            32 186 212 callsubr
            3 17 440 716 31 184 rlineto
            -530 hlineto
            -32 -186 rlineto
            319 hlineto
            -2 -17 -463 -737 rlineto
            -449 1280 90 callsubr
            231 hlineto
            305 132 188 603 86 hvcurveto
            20 130 9 97 79 vvcurveto
            244 -89 102 -212 vhcurveto
            -55 -186 rmoveto
            25 hlineto
            90 35 -45 -113 -64 -10 -98 -24 -147 hvcurveto
            -448 -65 -84 -156 -133 hhcurveto
            -25 hlineto
            endchar
          </CharString>
          <CharString index="90">
            -320 -260 rlineto
            256 109 callgsubr
            19 hlineto
            121 162 callgsubr
            return
          </CharString>
          <CharString index="91">
            69 callsubr
            -79 51 callsubr
            -66 79 hvcurveto
            return
          </CharString>
          <CharString index="92">
            rmoveto
            -330 -77 callsubr
            253 hlineto
            -204 356 rlineto
            return
          </CharString>
          <CharString index="93">
            89 callsubr
            67 -108 rlineto
            142 17 callsubr
            -53 -53 -9 -16 -45 vhcurveto
            endchar
          </CharString>
          <CharString index="94">
            51 callgsubr
            -113 -75 -69 -104 -104 75 -69 113 hvcurveto
            return
          </CharString>
          <CharString index="95">
            -119 -8 callgsubr
          </CharString>
          <CharString index="96">
            148 callsubr
            -179 -208 rlineto
            return
          </CharString>
          <CharString index="97">
            996 743 rmoveto
            182 21 140 159 186 vvcurveto
            217 -196 146 -291 -277 -200 -152 -245 -47 vhcurveto
            262 hlineto
            105 25 92 63 129 hhcurveto
            143 84 -66 -110 -130 -107 -86 -162 hvcurveto
            -174 hlineto
            -39 -232 rlineto
            170 hlineto
            141 90 -69 -108 -139 -106 -91 -162 -147 -107 83 117 13 0 6 1 3 hvcurveto
            -270 hlineto
            -2 -10 -1 -34 -18 vvcurveto
            return
          </CharString>
          <CharString index="98">
            40 -30 -45 -50 -39 -37 -76 215 callgsubr
            114 vvcurveto
            121 -92 153 callsubr
            -39 vhcurveto
            endchar
          </CharString>
          <CharString index="99">
            123 190 23 hvcurveto
            return
          </CharString>
          <CharString index="100">
            228 callsubr
            107 11 84 70 115 hhcurveto
            115 68 -69 -108 -11 hvcurveto
            197 hlineto
            195 36 -160 160 -230 hhcurveto
            endchar
          </CharString>
          <CharString index="101">
            59 callsubr
            49 callgsubr
            return
          </CharString>
          <CharString index="102">
            35 -128 162 hhcurveto
            139 113 123 169 18 hvcurveto
            -185 hlineto
            -84 -15 -26 -37 -45 -83 -36 127 -162 hhcurveto
            -142 -108 -119 -177 -20 hvcurveto
            184 hlineto
            86 15 28 40 return
          </CharString>
          <CharString index="103">
            -80 -67 -68 -84 -83 172 callsubr
            return
          </CharString>
          <CharString index="104">
            557 218 rmoveto
            59 316 rlineto
            182 hlineto
            114 55 -45 -80 -115 -76 -76 -152 hvcurveto
            -87 532 rmoveto
            32 182 rlineto
            434 hlineto
            29 171 rlineto
            -432 hlineto
            74 420 186 callgsubr
            -74 -420 rlineto
            -220 hlineto
            -29 -171 rlineto
            219 hlineto
            -164 -932 rlineto
            501 hlineto
            322 173 194 237 205 -139 114 -250 hvcurveto
            endchar
          </CharString>
          <CharString index="105">
            rmoveto
            229 134 142 306 53 hvcurveto
            182 1031 rlineto
            -614 hlineto
            -41 -245 rlineto
            351 hlineto
            -137 -761 rlineto
            -161 -29 -40 -55 -73 hhcurveto
            -52 -27 33 64 24 3 32 7 47 hvcurveto
            -254 hlineto
            -8 -48 -4 -43 -41 vvcurveto
            -210 112 -115 208 vhcurveto
            -468 36 rmoveto
            -62 callsubr
            -264 80 callsubr
          </CharString>
          <CharString index="106">
            149 callsubr
            738 43 callsubr
            -229 hlineto
            169 952 rlineto
            404 hlineto
            -39 -222 178 callgsubr
            return
          </CharString>
          <CharString index="107">
            rmoveto
            -256 78 callsubr
            187 194 rlineto
            return
          </CharString>
          <CharString index="108">
            29 callsubr
            73 -87 -86 125 callgsubr
            86 hvcurveto
            endchar
          </CharString>
          <CharString index="109">
            -5 -31 hvcurveto
            -110 -621 101 callgsubr
            return
          </CharString>
          <CharString index="110">
            135 callgsubr
            -70 -42 -56 -51 callgsubr
            -105 12 hvcurveto
            return
          </CharString>
          <CharString index="111">
            183 callgsubr
            144 26 callsubr
            return
          </CharString>
          <CharString index="112">
            11 -10 callgsubr
            return
          </CharString>
          <CharString index="113">
            rmoveto
            83 39 -150 163 hhcurveto
            143 10 callgsubr
            -10 -29 -43 -50 -84 -39 return
          </CharString>
          <CharString index="114">
            hmoveto
            -95 callgsubr
            return
          </CharString>
          <CharString index="115">
            rmoveto
            79 68 69 83 83 -68 69 -79 -80 -68 -69 -83 -83 68 61 callsubr
          </CharString>
          <CharString index="116">
            -23 callgsubr
            10 callgsubr
            -11 return
          </CharString>
          <CharString index="117">
            -59 74 105 11 211 callgsubr
            -183 -36 return
          </CharString>
          <CharString index="118">
            637 661 rmoveto
            1 9 6 30 2 8 rrcurveto
            133 30 86 75 123 hhcurveto
            120 76 -78 -115 -8 hvcurveto
            -17 -4 -33 -3 -12 vhcurveto
            -680 5 rmoveto
            -1 hlineto
            -52 -27 26 48 47 21 49 27 47 hvcurveto
            -184 hlineto
            -30 -43 -30 -73 -66 vvcurveto
            -133 82 -80 160 vhcurveto
            7 hlineto
            -4 -29 -1 -26 -29 vvcurveto
            return
          </CharString>
          <CharString index="119">
            356 21 callsubr
            return
          </CharString>
          <CharString index="120">
            rmoveto
            84 -23 callgsubr
            return
          </CharString>
          <CharString index="121">
            49 callsubr
            155 -158 224 hhcurveto
            return
          </CharString>
          <CharString index="122">
            500 hmoveto
            102 572 rlineto
            570 hlineto
            39 235 rlineto
            -569 hlineto
            71 391 rlineto
            627 43 callsubr
            -912 -98 callsubr
            return
          </CharString>
          <CharString index="123">
            hlineto
            -187 13 callgsubr
            return
          </CharString>
          <CharString index="124">
            44 86 92 119 vvcurveto
            114 -91 76 -131 return
          </CharString>
          <CharString index="125">
            73 callsubr
            249 hlineto
            88 510 rlineto
            return
          </CharString>
          <CharString index="126">
            rmoveto
            -42 callgsubr
            719 hlineto
            212 callgsubr
            endchar
          </CharString>
          <CharString index="127">
            rmoveto
            27 callgsubr
            return
          </CharString>
          <CharString index="128">
            -11 callsubr
            -18 hlineto
            -107 208 rlineto
            return
          </CharString>
          <CharString index="129">
            -135 rlineto
            -13 46 56 -9 return
          </CharString>
          <CharString index="130">
            1296 108 callsubr
            -683 -354 rmoveto
            227 79 callgsubr
            endchar
          </CharString>
          <CharString index="131">
            69 callgsubr
            68 -108 rlineto
            141 17 callsubr
            -52 -54 -9 -16 -45 vhcurveto
            return
          </CharString>
          <CharString index="132">
            -34 callsubr
            endchar
          </CharString>
          <CharString index="133">
            32 callsubr
            -115 -68 69 108 10 hvcurveto
            return
          </CharString>
          <CharString index="134">
            34 callgsubr
            96 callsubr
            return
          </CharString>
          <CharString index="135">
            rmoveto
            86 -5 callgsubr
            73 -86 -87 return
          </CharString>
          <CharString index="136">
            rmoveto
            87 -5 callgsubr
            return
          </CharString>
          <CharString index="137">
            -256 hlineto
            -78 -26 -73 -44 -98 hhcurveto
            -127 -80 85 131 8 hvcurveto
            12 6 45 5 25 vhcurveto
            679 hlineto
            16 110 rlineto
            5 29 5 57 36 vvcurveto
            235 11 -179 173 -253 hhcurveto
            -262 -196 -168 -263 -46 hvcurveto
            endchar
          </CharString>
          <CharString index="138">
            -35 callgsubr
            endchar
          </CharString>
          <CharString index="139">
            210 19 211 callgsubr
            -107 -12 224 callsubr
            return
          </CharString>
          <CharString index="140">
            80 67 68 83 84 -67 68 -80 return
          </CharString>
          <CharString index="141">
            hlineto
            179 7 callgsubr
            return
          </CharString>
          <CharString index="142">
            hvcurveto
            -23 22 callsubr
            return
          </CharString>
          <CharString index="143">
            -270 hlineto
            -78 -27 -77 -44 -103 hhcurveto
            -134 -82 85 131 7 hvcurveto
            12 6 45 5 25 vhcurveto
            714 hlineto
            17 110 rlineto
            5 29 6 57 36 vvcurveto
            235 11 -188 173 -267 hhcurveto
            -275 -206 -168 -263 -48 hvcurveto
            return
          </CharString>
          <CharString index="144">
            rlineto
            247 44 96 112 158 hhcurveto
            144 -6 callgsubr
            return
          </CharString>
          <CharString index="145" raw="1">
            db1ff861 16dbce0b  
          </CharString>
          <CharString index="146">
            84 callsubr
            -104 -12 callsubr
          </CharString>
          <CharString index="147">
            -335 166 callgsubr
            return
          </CharString>
          <CharString index="148">
            -233 -174 -145 -210 -19 hvcurveto
            200 hlineto
            107 12 84 70 114 hhcurveto
            115 68 -69 -108 -10 hvcurveto
            return
          </CharString>
          <CharString index="149">
            -118 159 hhcurveto
            132 103 107 143 18 hvcurveto
            return
          </CharString>
          <CharString index="150">
            hlineto
            -47 callsubr
            return
          </CharString>
          <CharString index="151">
            13 callsubr
            107 -24 callgsubr
            -83 -40 150 210 callsubr
            -120 117 callsubr
            184 80 callgsubr
          </CharString>
          <CharString index="152">
            rmoveto
            -179 353 rlineto
            -296 hlineto
            218 -353 rlineto
            endchar
          </CharString>
          <CharString index="153">
            -48 -279 rlineto
            -9 -47 -4 -51 -52 vvcurveto
            return
          </CharString>
          <CharString index="154">
            rmoveto
            88 23 -131 162 hhcurveto
            138 102 115 155 21 hvcurveto
            -172 170 callsubr
            -161 hhcurveto
            -139 170 callgsubr
            13 31 39 47 hhcurveto
            endchar
          </CharString>
          <CharString index="155">
            -320 13 callsubr
            107 -24 callgsubr
            return
          </CharString>
          <CharString index="156">
            -109 -15 -71 -70 -24 callsubr
            return
          </CharString>
          <CharString index="157">
            184 callgsubr
            168 240 callgsubr
            return
          </CharString>
          <CharString index="158">
            -64 -66 -82 -82 64 return
          </CharString>
          <CharString index="159">
            644 1103 rmoveto
            -271 hlineto
            -192 -1103 rlineto
            269 hlineto
            81 463 rlineto
            70 hlineto
            278 -463 rlineto
            302 hlineto
            -341 567 511 536 rlineto
            -318 hlineto
            -401 -434 rlineto
            -66 hlineto
            return
          </CharString>
          <CharString index="160">
            -109 -15 68 callgsubr
            return
          </CharString>
          <CharString index="161">
            rmoveto
            -1491 -1281 -29 -162 1492 1281 rlineto
            endchar
          </CharString>
          <CharString index="162">
            223 callsubr
            79 151 callsubr
            -43 -23 return
          </CharString>
          <CharString index="163">
            318 152 callgsubr
            return
          </CharString>
          <CharString index="164">
            1443 rmoveto
            return
          </CharString>
          <CharString index="165">
            -1602 rmoveto
            67 callsubr
          </CharString>
          <CharString index="166">
            17 callgsubr
            -204 hlineto
            return
          </CharString>
          <CharString index="167">
            -28 -160 rlineto
            return
          </CharString>
          <CharString index="168">
            -69 80 hvcurveto
            461 85 callgsubr
          </CharString>
          <CharString index="169">
            -158 -735 rlineto
            -378 -100 -29 -74 -105 hhcurveto
            -20 -22 3 6 -19 hvcurveto
            -46 -265 rlineto
            -8 24 60 -8 33 hhcurveto
            274 87 179 531 128 hvcurveto
            105 504 rlineto
            374 hlineto
            return
          </CharString>
          <CharString index="170">
            79 68 68 83 84 -68 68 -79 -4 callsubr
            return
          </CharString>
          <CharString index="171">
            64 66 82 82 -64 66 return
          </CharString>
          <CharString index="172">
            -24 hvcurveto
            76 -120 rlineto
            return
          </CharString>
          <CharString index="173">
            -31 callsubr
            endchar
          </CharString>
          <CharString index="174">
            -100 callgsubr
            endchar
          </CharString>
          <CharString index="175">
            151 callsubr
            -43 -23 -71 -41 return
          </CharString>
          <CharString index="176">
            78 64 callsubr
            -78 return
          </CharString>
          <CharString index="177">
            335 109 callsubr
            return
          </CharString>
          <CharString index="178">
            76 callsubr
            -461 159 callgsubr
            return
          </CharString>
          <CharString index="179">
            rlineto
            283 hlineto
            107 597 rlineto
            46 hlineto
            363 -597 rlineto
            330 hlineto
            -453 718 return
          </CharString>
          <CharString index="180">
            hlineto
            -50 -285 rlineto
            return
          </CharString>
          <CharString index="181">
            1601 rmoveto
            -108 -15 -70 -71 101 callsubr
            return
          </CharString>
          <CharString index="182">
            39 220 rlineto
            return
          </CharString>
          <CharString index="183">
            1619 -84 callsubr
            return
          </CharString>
          <CharString index="184">
            -40 86 callsubr
            return
          </CharString>
          <CharString index="185">
            hlineto
            -338 40 callsubr
            return
          </CharString>
          <CharString index="186">
            133 133 -107 109 -131 return
          </CharString>
          <CharString index="187">
            -98 callsubr
            endchar
          </CharString>
          <CharString index="188">
            157 callsubr
            462 7 callsubr
            return
          </CharString>
          <CharString index="189">
            rmoveto
            16 35 36 7 40 hhcurveto
            61 40 -30 return
          </CharString>
          <CharString index="190">
            rmoveto
            180 callsubr
            74 105 10 208 callgsubr
            -36 155 -158 224 hhcurveto
            -44 callgsubr
            return
          </CharString>
          <CharString index="191">
            48 callsubr
            -84 -39 30 callgsubr
            return
          </CharString>
          <CharString index="192">
            1358 518 rmoveto
            42 248 rlineto
            -1266 hlineto
            -42 -248 rlineto
            endchar
          </CharString>
          <CharString index="193">
            30 callgsubr
            -103 -119 117 callsubr
            return
          </CharString>
          <CharString index="194">
            213 202 callgsubr
            return
          </CharString>
          <CharString index="195">
            -982 -55 callsubr
            274 hlineto
            156 877 rlineto
            434 hlineto
            return
          </CharString>
          <CharString index="196">
            hhcurveto
            64 35 69 callgsubr
            return
          </CharString>
          <CharString index="197">
            rmoveto
            -97 callsubr
            return
          </CharString>
          <CharString index="198">
            964 1795 rmoveto
            236 callsubr
            -221 70 callsubr
            -339 40 callsubr
            -198 return
          </CharString>
          <CharString index="199">
            -20 -166 135 -307 hhcurveto
            -272 -194 -119 -216 -97 39 -69 97 -46 hvcurveto
            -3 -17 rlineto
            -157 -33 -87 -93 -146 vvcurveto
            return
          </CharString>
          <CharString index="200">
            rmoveto
            63 callsubr
            return
          </CharString>
          <CharString index="201">
            hmoveto
            76 63 64 79 80 -63 64 -76 -77 -63 -64 -80 -79 63 -64 77 hvcurveto
            return
          </CharString>
          <CharString index="202">
            rmoveto
            97 callsubr
            return
          </CharString>
          <CharString index="203">
            43 callgsubr
            hvcurveto
            return
          </CharString>
          <CharString index="204">
            -244 hlineto
            162 -354 rlineto
            return
          </CharString>
          <CharString index="205">
            1609 rmoveto
            730 hlineto
            29 167 rlineto
            -731 hlineto
            497 126 rmoveto
            234 262 rlineto
            -270 hlineto
            -207 -262 rlineto
            return
          </CharString>
          <CharString index="206">
            140 callgsubr
            -119 194 rlineto
            -237 hlineto
            endchar
          </CharString>
          <CharString index="207">
            -55 callsubr
            endchar
          </CharString>
          <CharString index="208">
            -45 callsubr
            -44 callgsubr
            return
          </CharString>
          <CharString index="209">
            110 callsubr
            endchar
          </CharString>
          <CharString index="210">
            -117 rlineto
            57 95 callgsubr
            return
          </CharString>
          <CharString index="211">
            rlineto
            -71 callgsubr
            return
          </CharString>
          <CharString index="212">
            -85 callgsubr
            254 hlineto
            return
          </CharString>
          <CharString index="213">
            156 -158 223 hhcurveto
            return
          </CharString>
          <CharString index="214">
            hlineto
            -173 -479 rmoveto
            87 24 -131 161 hhcurveto
            138 103 115 155 21 hvcurveto
            -173 hlineto
            -76 -13 -31 -37 -46 return
          </CharString>
          <CharString index="215">
            rmoveto
            228 79 callgsubr
            return
          </CharString>
          <CharString index="216">
            rlineto
            -256 hlineto
            return
          </CharString>
          <CharString index="217">
            rmoveto
            -331 -356 rlineto
            266 34 callsubr
            return
          </CharString>
          <CharString index="218">
            rmoveto
            256 hlineto
            339 335 rlineto
            -257 16 callsubr
            endchar
          </CharString>
          <CharString index="219">
            1325 1103 rmoveto
            -1029 107 callgsubr
            176 hlineto
            return
          </CharString>
          <CharString index="220">
            652 -24 rmoveto
            311 218 152 239 51 hvcurveto
            -281 hlineto
            -108 -35 -94 -56 -140 hhcurveto
            -144 -69 return
          </CharString>
          <CharString index="221">
            1867 rmoveto
            -81 -66 -67 -84 -83 66 -68 81 80 66 68 83 84 -66 67 -80 hvcurveto
            -321 102 rmoveto
            731 hlineto
            return
          </CharString>
          <CharString index="222">
            212 37 callsubr
            -52 -5 -51 -9 -59 hvcurveto
            -39 -215 rlineto
            return
          </CharString>
          <CharString index="223">
            208 rlineto
            -253 hlineto
            205 return
          </CharString>
          <CharString index="224">
            -198 -25 hvcurveto
            return
          </CharString>
          <CharString index="225">
            240 callsubr
            -320 -260 rlineto
            256 109 callgsubr
            18 hlineto
            122 162 callgsubr
            return
          </CharString>
          <CharString index="226">
            rlineto
            305 hlineto
            29 170 rlineto
            -304 hlineto
            45 254 rlineto
            344 hlineto
            -30 -174 rlineto
            231 hlineto
            endchar
          </CharString>
          <CharString index="227">
            221 callsubr
            238 -318 rlineto
            254 hlineto
            return
          </CharString>
          <CharString index="228">
            166 callsubr
            -298 hlineto
            -313 164 callsubr
            return
          </CharString>
          <CharString index="229">
            161 callgsubr
            -91 return
          </CharString>
          <CharString index="230">
            137 callgsubr
            74 -87 return
          </CharString>
          <CharString index="231">
            rmoveto
            130 90 -90 -131 return
          </CharString>
          <CharString index="232">
            68 68 83 84 -68 68 return
          </CharString>
          <CharString index="233">
            20 hvcurveto
            -201 hlineto
            return
          </CharString>
          <CharString index="234">
            rmoveto
            226 hlineto
            124 704 rlineto
            -219 hlineto
            -202 -134 -33 -194 191 131 rlineto
            4 hlineto
            return
          </CharString>
          <CharString index="235">
            -41 -244 rlineto
            return
          </CharString>
          <CharString index="236">
            -58 -8 -30 -33 -44 -89 -40 114 -153 hhcurveto
            -145 -116 -107 -141 -6 hvcurveto
            178 hlineto
            59 return
          </CharString>
          <CharString index="237">
            hlineto
            163 375 rlineto
            -264 hlineto
            endchar
          </CharString>
          <CharString index="238">
            rmoveto
            113 75 69 104 104 -75 69 -113 -112 -75 -69 -104 -104 75 -69 112 hvcurveto
            endchar
          </CharString>
          <CharString index="239">
            hlineto
            79 68 callsubr
            return
          </CharString>
          <CharString index="240">
            -68 -68 -84 -83 68 -68 return
          </CharString>
          <CharString index="241">
            28 callgsubr
            -112 -76 -69 -104 -104 76 -69 112 hvcurveto
            endchar
          </CharString>
          <CharString index="242">
            201 callsubr
            -223 hlineto
            -230 -652 rlineto
            return
          </CharString>
          <CharString index="243">
            rlineto
            -223 hlineto
            -41 -245 rlineto
            return
          </CharString>
          <CharString index="244">
            hlineto
            37 219 rlineto
            return
          </CharString>
          <CharString index="245">
            rlineto
            284 hlineto
            return
          </CharString>
          <CharString index="246">
            -103 hhcurveto
            -108 -59 74 105 11 208 callgsubr
            -37 106 callsubr
            return
          </CharString>
          <CharString index="247">
            573 -455 rmoveto
            -57 -45 46 56 57 45 45 57 58 44 -45 -57 -56 -44 -46 -58 hvcurveto
            return
          </CharString>
          <CharString index="248">
            rlineto
            -261 hlineto
            return
          </CharString>
          <CharString index="249">
            rlineto
            336 hlineto
            return
          </CharString>
          <CharString index="250">
            rmoveto
            -43 callgsubr
            462 hmoveto
            return
          </CharString>
          <CharString index="251">
            20 callsubr
            -461 hmoveto
            return
          </CharString>
          <CharString index="252">
            -185 rlineto
            490 316 rmoveto
            268 311 rlineto
            -262 hlineto
            -230 -311 rlineto
            return
          </CharString>
          <CharString index="253">
            -76 -64 -64 -80 -79 64 -64 76 hvcurveto
            return
          </CharString>
          <CharString index="254">
            68 68 84 83 -68 68 return
          </CharString>
          <CharString index="255">
            rlineto
            -265 hlineto
            return
          </CharString>
          <CharString index="256">
            hlineto
            -42 -245 rlineto
            220 hlineto
            -168 -953 136 callsubr
            return
          </CharString>
          <CharString index="257">
            107 callgsubr
            176 hlineto
            -116 -663 rlineto
            -180 107 callgsubr
            return
          </CharString>
          <CharString index="258">
            40 -19 -37 -38 return
          </CharString>
          <CharString index="259">
            hhcurveto
            -33 -220 1 2 -19 hvcurveto
            -39 -226 rlineto
            -2 27 210 -1 37 hhcurveto
            return
          </CharString>
          <CharString index="260">
            224 callgsubr
            -8 -19 return
          </CharString>
          <CharString index="261">
            rlineto
            -3 hlineto
            -43 -258 rlineto
            return
          </CharString>
          <CharString index="262">
            109 -63 84 -115 33 return
          </CharString>
          <CharString index="263">
            -160 230 hhcurveto
            return
          </CharString>
          <CharString index="264">
            rmoveto
            168 callsubr
            return
          </CharString>
          <CharString index="265">
            rmoveto
            -78 -64 -65 -82 -82 64 -66 78 79 64 66 82 82 -64 65 -79 hvcurveto
            return
          </CharString>
          <CharString index="266">
            rmoveto
            -79 51 callsubr
            -65 79 78 64 65 82 82 -64 66 -78 hvcurveto
            return
          </CharString>
          <CharString index="267">
            -101 -79 -76 -98 -98 79 -76 101 return
          </CharString>
          <CharString index="268">
            -222 -171 -133 -203 return
          </CharString>
          <CharString index="269">
            hhcurveto
            -146 -104 -120 return
          </CharString>
          <CharString index="270">
            -72 -74 98 callgsubr
            return
          </CharString>
          <CharString index="271">
            -318 rlineto
            263 hlineto
            return
          </CharString>
          <CharString index="272">
            rlineto
            -267 hlineto
            return
          </CharString>
          <CharString index="273">
            1920 rmoveto
            return
          </CharString>
          <CharString index="274">
            123 callgsubr
            -36 callgsubr
            80 hvcurveto
            return
          </CharString>
          <CharString index="275">
            80 -39 callgsubr
            -80 -79 -36 callgsubr
            79 hvcurveto
            return
          </CharString>
          <CharString index="276">
            -322 hlineto
            -573 -617 rlineto
            -38 hlineto
            return
          </CharString>
          <CharString index="277">
            hlineto
            -76 -13 -31 -37 -46 -88 -24 130 return
          </CharString>
          <CharString index="278">
            953 rlineto
            17 hlineto
            return
          </CharString>
          <CharString index="279">
            67 -68 80 hvcurveto
            return
          </CharString>
          <CharString index="280">
            -11 -29 -43 -50 -84 -39 150 -163 162 callsubr
            return
          </CharString>
          <CharString index="281">
            -72 -63 -96 -108 vvcurveto
            -109 100 -78 140 48 51 10 15 return
          </CharString>
          <CharString index="282">
            rmoveto
            342 -65 callgsubr
            endchar
          </CharString>
          <CharString index="283">
            201 callgsubr
            endchar
          </CharString>
          <CharString index="284">
            232 174 return
          </CharString>
          <CharString index="285">
            89 39 -115 150 hhcurveto
            126 105 101 141 19 hvcurveto
            return
          </CharString>
          <CharString index="286">
            1276 -20 callsubr
            return
          </CharString>
          <CharString index="287">
            156 callgsubr
            -103 hhcurveto
            -107 -59 return
          </CharString>
          <CharString index="288">
            rmoveto
            -244 hlineto
            163 -354 rlineto
            return
          </CharString>
          <CharString index="289">
            -730 hlineto
            -29 -167 rlineto
            return
          </CharString>
          <CharString index="290">
            -87 -13 -32 -42 -48 return
          </CharString>
          <CharString index="291">
            37 218 rlineto
            return
          </CharString>
          <CharString index="292">
            rlineto
            -266 hlineto
            return
          </CharString>
          <CharString index="293">
            -22 -121 rlineto
            50 hlineto
            79 151 callsubr
            -43 -23 -71 return
          </CharString>
          <CharString index="294">
            -38 -37 -77 215 callgsubr
            return
          </CharString>
          <CharString index="295">
            hlineto
            -190 -1076 rlineto
            -111 -20 -67 -50 -133 hhcurveto
            return
          </CharString>
          <CharString index="296">
            rmoveto
            -178 353 157 callgsubr
            218 -353 rlineto
            return
          </CharString>
          <CharString index="297">
            rmoveto
            184 219 callgsubr
          </CharString>
          <CharString index="298">
            hvcurveto
            207 callsubr
          </CharString>
          <CharString index="299">
            rlineto
            240 hlineto
            return
          </CharString>
          <CharString index="300">
            273 653 rlineto
            -271 hlineto
            -250 -653 rlineto
            return
          </CharString>
          <CharString index="301">
            38 203 callgsubr
            return
          </CharString>
          <CharString index="302">
            1287 rmoveto
            180 callgsubr
            return
          </CharString>
          <CharString index="303">
            rmoveto
            136 101 109 180 31 hvcurveto
            10 53 rlineto
            return
          </CharString>
          <CharString index="304">
            1299 rmoveto
            123 callgsubr
            return
          </CharString>
          <CharString index="305">
            rlineto
            404 hlineto
            -39 -222 178 callgsubr
            endchar
          </CharString>
          <CharString index="306">
            146 rlineto
            -249 hlineto
            229 -266 rlineto
            endchar
          </CharString>
          <CharString index="307">
            hlineto
            -383 -836 rlineto
            -17 hlineto
            return
          </CharString>
          <CharString index="308">
            247 652 rlineto
            return
          </CharString>
          <CharString index="309">
            rmoveto
            200 hlineto
            return
          </CharString>
          <CharString index="310">
            1650 181 callsubr
            return
          </CharString>
          <CharString index="311">
            1629 rmoveto
            -331 -356 67 callgsubr
            return
          </CharString>
          <CharString index="312">
            129 44 72 81 102 vvcurveto
            95 -80 65 -115 return
          </CharString>
          <CharString index="313">
            185 rlineto
            -718 176 callsubr
          </CharString>
          <CharString index="314">
            -62 callsubr
            endchar
          </CharString>
          <CharString index="315">
            -68 -68 -83 -84 68 -68 return
          </CharString>
          <CharString index="316">
            45 -45 -57 -57 -45 -45 return
          </CharString>
          <CharString index="317">
            -162 hhcurveto
            -147 -103 return
          </CharString>
          <CharString index="318">
            -38 -225 rlineto
            return
          </CharString>
          <CharString index="319">
            rlineto
            -323 hlineto
            return
          </CharString>
          <CharString index="320">
            hhcurveto
            -195 hlineto
            return
          </CharString>
          <CharString index="321">
            -247 -247 -187 -194 -237 hvcurveto
            return
          </CharString>
          <CharString index="322">
            57 51 156 61 hvcurveto
            234 -190 rmoveto
            return
          </CharString>
          <CharString index="323">
            62 -64 -83 -122 -89 -90 -150 -110 return
          </CharString>
          <CharString index="324">
            30 28 vvcurveto
            146 -76 86 -128 -136 return
          </CharString>
          <CharString index="325">
            97 callgsubr
            endchar
          </CharString>
          <CharString index="326">
            -70 -71 -103 hhcurveto
            -107 -60 74 return
          </CharString>
          <CharString index="327">
            150 -146 222 hhcurveto
            return
          </CharString>
          <CharString index="328">
            166 callsubr
            -289 hlineto
            return
          </CharString>
          <CharString index="329">
            hlineto
            81 452 rlineto
            return
          </CharString>
          <CharString index="330">
            -117 rlineto
            57 hlineto
            return
          </CharString>
          <CharString index="331">
            -84 -70 -114 hhcurveto
            return
          </CharString>
          <CharString index="332">
            rmoveto
            -47 callsubr
            return
          </CharString>
          <CharString index="333">
            rlineto
            294 hlineto
            return
          </CharString>
          <CharString index="334">
            -51 -285 rlineto
            return
          </CharString>
          <CharString index="335">
            hvcurveto
            201 hlineto
            return
          </CharString>
          <CharString index="336">
            rlineto
            285 hlineto
            return
          </CharString>
          <CharString index="337">
            -652 rlineto
            endchar
          </CharString>
          <CharString index="338">
            -168 rlineto
            -18 hlineto
            -118 168 rlineto
            return
          </CharString>
          <CharString index="339">
            267 hmoveto
            171 947 rlineto
            19 hlineto
            return
          </CharString>
          <CharString index="340">
            -234 rmoveto
            57 hlineto
            79 151 callsubr
            return
          </CharString>
          <CharString index="341">
            218 175 136 181 20 hvcurveto
            return
          </CharString>
          <CharString index="342">
            -131 -107 -109 -133 -133 107 return
          </CharString>
          <CharString index="343">
            17 97 callgsubr
            return
          </CharString>
          <CharString index="344">
            60 callsubr
            -7 -38 -2 -37 -37 vvcurveto
            return
          </CharString>
          <CharString index="345">
            31 37 44 hhcurveto
            endchar
          </CharString>
          <CharString index="346">
            rlineto
            -216 hlineto
            return
          </CharString>
          <CharString index="347">
            rmoveto
            -270 hlineto
            return
          </CharString>
          <CharString index="348">
            rlineto
            -250 hlineto
            return
          </CharString>
          <CharString index="349" raw="1">
            46db1f0e   
          </CharString>
        <CharString name=".notdef">
          endchar
        </CharString>
        <CharString name="A">
          578 575 -69 callgsubr
        </CharString>
        <CharString name="AE">
          716 589 -39 callsubr
        </CharString>
        <CharString name="AEacute">
          1533 166 callsubr
          -298 hlineto
          -314 164 callsubr
          -364 -428 rmoveto
          -104 -585 rlineto
          -205 hlineto
          223 585 rlineto
          -732 -1174 rmoveto
          284 hlineto
          135 353 230 callgsubr
          -63 -353 rlineto
          636 hlineto
          42 245 rlineto
          -381 hlineto
          67 367 rlineto
          345 hlineto
          39 228 rlineto
          -345 hlineto
          66 358 rlineto
          380 43 callsubr
          -898 hlineto
          endchar
        </CharString>
        <CharString name="AEmacron">
          1472 1840 rmoveto
          -719 201 callgsubr
          719 hlineto
          -724 -1066 -39 callsubr
        </CharString>
        <CharString name="Aacute">
          1374 166 callsubr
          -299 hlineto
          -313 164 callsubr
          -447 -1027 rmoveto
          -103 callsubr
          endchar
        </CharString>
        <CharString name="Abreve">
          578 575 rmoveto
          -103 callsubr
          93 484 rmoveto
          54 callgsubr
          171 callgsubr
          endchar
        </CharString>
        <CharString name="Abreveacute">
          1286 2164 rmoveto
          -249 hlineto
          -209 -250 rlineto
          209 hlineto
          -459 -1339 rmoveto
          -103 callsubr
          83 454 rmoveto
          15 callgsubr
          234 callsubr
          endchar
        </CharString>
        <CharString name="Abrevedotbelow">
          578 -151 rmoveto
          -87 -72 -73 -90 -89 72 -73 87 86 72 73 89 90 -72 73 -86 hvcurveto
          726 vmoveto
          -103 callsubr
          93 484 rmoveto
          54 callgsubr
          171 callgsubr
          endchar
        </CharString>
        <CharString name="Abrevegrave">
          1066 205 callgsubr
          163 -250 rlineto
          -292 -1339 rmoveto
          -103 callsubr
          83 454 rmoveto
          15 callgsubr
          234 callsubr
          endchar
        </CharString>
        <CharString name="Abrevehookabove">
          930 1813 rmoveto
          205 callsubr
          -47 -49 -8 -14 -44 vhcurveto
          88 callgsubr
          10 26 45 6 38 hhcurveto
          55 30 -20 -39 -40 -39 -38 -65 -23 hvcurveto
          -285 -1331 rmoveto
          -103 callsubr
          83 426 rmoveto
          -88 -12 -81 -56 -110 hhcurveto
          -108 158 callgsubr
          236 callgsubr
          endchar
        </CharString>
        <CharString name="Abrevetilde">
          1207 2156 rmoveto
          129 callsubr
          4 38 39 51 178 callsubr
          -797 -1581 rmoveto
          -103 callsubr
          -483 414 rmoveto
          -172 134 -105 218 206 163 114 163 31 vhcurveto
          -191 hlineto
          -80 -17 -80 -52 -103 hhcurveto
          -101 -68 51 81 -8 hvcurveto
          endchar
        </CharString>
        <CharString name="Acaron">
          1040 1594 rmoveto
          -16 callgsubr
          222 -335 rlineto
          -206 -1019 rmoveto
          -103 callsubr
          endchar
        </CharString>
        <CharString name="Acircumflex">
          91 callsubr
          -1026 rmoveto
          -103 callsubr
          endchar
        </CharString>
        <CharString name="Acircumflexacute">
          578 575 rmoveto
          -103 callsubr
          -241 397 rmoveto
          -41 callgsubr
          -230 260 rlineto
          337 324 rmoveto
          -233 -287 rlineto
          229 hlineto
          260 287 rlineto
          endchar
        </CharString>
        <CharString name="Acircumflexdotbelow">
          91 callsubr
          -1752 rmoveto
          -87 -72 -73 -90 -89 72 -73 87 86 72 73 89 90 -72 73 -86 hvcurveto
          726 vmoveto
          -103 callsubr
          endchar
        </CharString>
        <CharString name="Acircumflexgrave">
          1468 168 callgsubr
          -670 -1302 rmoveto
          -103 callsubr
          -237 397 rmoveto
          -17 callsubr
          -230 260 rlineto
          endchar
        </CharString>
        <CharString name="Acircumflexhookabove">
          578 575 rmoveto
          -103 callsubr
          -237 397 rmoveto
          -17 callsubr
          -230 260 rlineto
          44 188 4 callgsubr
          -84 70 -120 -47 -46 -8 -14 -46 vhcurveto
          endchar
        </CharString>
        <CharString name="Acircumflextilde">
          1210 2165 rmoveto
          115 callgsubr
          91 20 42 callsubr
          -801 -1590 rmoveto
          -103 callsubr
          -239 397 rmoveto
          -41 callgsubr
          -230 260 rlineto
          endchar
        </CharString>
        <CharString name="Acyrillic">
          578 575 -69 callgsubr
        </CharString>
        <CharString name="Adblgrave">
          1245 1602 rmoveto
          -179 318 rlineto
          -244 hlineto
          203 -318 rlineto
          -199 hmoveto
          -179 318 rlineto
          -243 hlineto
          202 -318 rlineto
          -28 -1027 rmoveto
          -103 callsubr
          endchar
        </CharString>
        <CharString name="Adieresis">
          710 76 callsubr
          -132 -1044 rmoveto
          -103 callsubr
          117 480 rmoveto
          -66 callgsubr
          -58 callgsubr
          hvcurveto
          endchar
        </CharString>
        <CharString name="Adieresismacron">
          578 575 rmoveto
          -103 callsubr
          -208 266 rmoveto
          82 -65 66 -78 163 callgsubr
          -65 78 78 65 65 82 vhcurveto
          312 148 55 callgsubr
          -530 279 rmoveto
          -28 -167 rlineto
          730 hlineto
          29 167 rlineto
          endchar
        </CharString>
        <CharString name="Adotaccent">
          941 1597 -53 callsubr
          -363 -1022 -69 callgsubr
        </CharString>
        <CharString name="Adotbelow">
          578 -151 rmoveto
          -87 -72 -73 -90 -89 72 -73 87 86 72 73 89 90 -72 73 -86 hvcurveto
          726 vmoveto
          257 585 rlineto
          13 hlineto
          45 -585 rlineto
          339 -575 rmoveto
          -177 1443 rlineto
          -336 46 callgsubr
          155 353 rlineto
          430 hlineto
          27 -353 rlineto
          endchar
        </CharString>
        <CharString name="Adotmacron">
          578 575 rmoveto
          -103 callsubr
          16 273 rmoveto
          84 -66 67 -80 -81 -66 -67 -84 -83 66 -68 81 80 66 68 83 vhcurveto
          -438 420 rmoveto
          -29 -167 rlineto
          731 hlineto
          29 167 rlineto
          endchar
        </CharString>
        <CharString name="Agrave">
          1029 1602 rmoveto
          -203 318 rlineto
          -288 133 callgsubr
          -198 -1027 -69 callgsubr
        </CharString>
        <CharString name="Ahookabove">
          913 1561 rmoveto
          141 17 callsubr
          -52 -54 -9 -16 -45 vhcurveto
          -19 -148 rlineto
          12 27 48 8 44 hhcurveto
          65 34 69 callgsubr
          -267 -1094 -69 callgsubr
        </CharString>
        <CharString name="Ainvertedbreve">
          578 575 rmoveto
          -103 callsubr
          -302 148 rmoveto
          89 callgsubr
          -150 146 -222 hhcurveto
          161 callsubr
          -36 hvcurveto
          endchar
        </CharString>
        <CharString name="Alphagreek">
          578 575 -69 callgsubr
        </CharString>
        <CharString name="Alphatonosgreek">
          638 57 callsubr
          -261 hlineto
          -155 -376 rlineto
          185 hlineto
          270 -492 rmoveto
          221 585 rlineto
          13 hlineto
          11 -585 rlineto
          11 -575 rmoveto
          286 hlineto
          -95 182 callgsubr
          -603 -85 callgsubr
          275 hlineto
          133 353 rlineto
          333 hlineto
          endchar
        </CharString>
        <CharString name="Amacron">
          578 575 rmoveto
          -103 callsubr
          -461 397 19 callsubr
        </CharString>
        <CharString name="Aogonek">
          835 210 callgsubr
          49 -585 212 callsubr
          361 -558 rmoveto
          -126 -70 -66 -86 -102 vvcurveto
          -130 109 -88 160 53 47 7 12 31 vhcurveto
          28 157 rlineto
          -4 -18 -28 -3 -29 hhcurveto
          -77 -52 41 61 91 93 67 172 30 hvcurveto
          -176 1443 rlineto
          -337 46 callgsubr
          159 353 rlineto
          423 hlineto
          endchar
        </CharString>
        <CharString name="Aring">
          928 1840 rmoveto
          54 42 -39 -54 -54 -40 -40 -56 -54 -41 40 54 54 41 39 54 hvcurveto
          1 -291 rmoveto
          115 86 85 114 113 -86 83 -115 -116 -86 -83 -113 -114 86 -85 116 hvcurveto
          -351 -974 -69 callgsubr
        </CharString>
        <CharString name="Aringacute">
          1238 2203 rmoveto
          -246 hlineto
          -133 -187 rlineto
          221 hlineto
          -147 -172 rmoveto
          55 41 -40 -54 -53 -40 -41 -56 -54 -41 40 54 54 41 40 54 hvcurveto
          1 -291 rmoveto
          115 86 84 115 112 -86 84 -115 -116 -86 -84 -112 -115 86 -84 116 hvcurveto
          -356 -978 rmoveto
          -103 callsubr
          endchar
        </CharString>
        <CharString name="Aringbelow">
          140 callsubr
          344 vmoveto
          235 callsubr
          -108 131 131 107 108 79 callsubr
          hvcurveto
          5 686 18 callgsubr
          339 -575 rmoveto
          -177 1443 rlineto
          -336 46 callgsubr
          155 353 rlineto
          430 hlineto
          27 -353 rlineto
          endchar
        </CharString>
        <CharString name="Atilde">
          1158 1885 rmoveto
          183 callsubr
          -82 -36 -26 callsubr
          -11 callgsubr
          -752 -1310 rmoveto
          -103 callsubr
          endchar
        </CharString>
        <CharString name="B">
          -91 callgsubr
          endchar
        </CharString>
        <CharString name="Bdotaccent">
          -91 callgsubr
          498 154 -30 callsubr
          endchar
        </CharString>
        <CharString name="Bdotbelow">
          -91 callgsubr
          121 -1928 rmoveto
          87 72 74 89 89 -72 74 -87 -86 -72 -74 -89 -89 72 -74 86 hvcurveto
          endchar
        </CharString>
        <CharString name="Becyrillic">
          714 hmoveto
          323 236 212 285 241 -170 161 -261 hvcurveto
          -253 hlineto
          55 299 rlineto
          632 43 callsubr
          -917 -98 callsubr
          325 237 rmoveto
          80 438 rlineto
          204 hlineto
          144 82 -70 -120 -145 -116 -103 -164 hvcurveto
          endchar
        </CharString>
        <CharString name="Betagreek">
          -91 callgsubr
          endchar
        </CharString>
        <CharString name="Blinebelow">
          -91 callgsubr
          463 -1867 rmoveto
          32 184 -29 callgsubr
          -32 -184 rlineto
          endchar
        </CharString>
        <CharString name="C">
          -96 callsubr
          endchar
        </CharString>
        <CharString name="Cacute">
          -96 callsubr
          -522 1152 -43 callsubr
          endchar
        </CharString>
        <CharString name="Ccaron">
          -96 callsubr
          -501 1144 -54 callgsubr
        </CharString>
        <CharString name="Ccedilla">
          -52 callsubr
        </CharString>
        <CharString name="Ccedillaacute">
          1379 121 callsubr
          -825 -965 rmoveto
          -35 callsubr
          287 hlineto
          4 34 2 23 19 vvcurveto
          277 -209 192 -301 -333 -214 -195 -361 -63 vhcurveto
          endchar
        </CharString>
        <CharString name="Ccircumflex">
          -96 callsubr
          -170 1486 0 callsubr
          18 218 callsubr
        </CharString>
        <CharString name="Cdotaccent">
          -96 callsubr
          -343 1147 -30 callsubr
          endchar
        </CharString>
        <CharString name="Checyrillic">
          1415 57 callsubr
          -284 hlineto
          -42 callsubr
          -105 -587 138 callsubr
          endchar
        </CharString>
        <CharString name="Chigreek">
          -58 callsubr
          endchar
        </CharString>
        <CharString name="D">
          -93 callsubr
          endchar
        </CharString>
        <CharString name="Dcaron">
          -93 callsubr
          96 393 -54 callgsubr
        </CharString>
        <CharString name="Dcircumflexbelow">
          -93 callsubr
          -241 -1361 rmoveto
          -331 -91 callsubr
          endchar
        </CharString>
        <CharString name="Dcommaaccent">
          -93 callsubr
          -143 -1705 rmoveto
          205 33 callgsubr
        </CharString>
        <CharString name="Dcroat">
          467 231 rmoveto
          71 392 rlineto
          268 hlineto
          38 215 rlineto
          -268 hlineto
          68 375 rlineto
          109 hlineto
          203 107 -107 -204 -48 -3 -47 -4 -39 hvcurveto
          -1 -28 -12 -65 -3 -20 rrcurveto
          -282 -53 -146 -142 -233 hhcurveto
          -184 1212 rmoveto
          -106 -605 rlineto
          -141 hlineto
          -37 -215 rlineto
          140 hlineto
          -110 -623 rlineto
          440 hlineto
          377 243 223 408 75 hvcurveto
          5 30 13 73 3 29 rrcurveto
          4 42 2 48 52 vvcurveto
          334 -210 204 -346 vhcurveto
          endchar
        </CharString>
        <CharString name="Ddotaccent">
          -93 callsubr
          253 396 1 callsubr
        </CharString>
        <CharString name="Ddotbelow">
          -93 callsubr
          -125 -1677 -92 callgsubr
          endchar
        </CharString>
        <CharString name="Decyrillic">
          1012 hmoveto
          -50 -285 rlineto
          257 hlineto
          91 531 rlineto
          -153 hlineto
          213 1197 rlineto
          -855 hlineto
          -188 -794 -58 -247 -49 -102 -82 -54 rlinecurve
          -80 hlineto
          -92 -531 rlineto
          257 hlineto
          50 285 rlineto
          454 1198 rmoveto
          319 hlineto
          -172 -952 rlineto
          -431 hlineto
          4 25 54 56 43 103 42 178 rlinecurve
          endchar
        </CharString>
        <CharString name="Deltagreek">
          65 hmoveto
          1133 hlineto
          29 167 -172 1276 rlineto
          -336 hlineto
          -626 -1276 rlineto
          321 78 rmoveto
          2 17 419 905 rlineto
          13 hlineto
          90 -905 -3 -17 rlineto
          endchar
        </CharString>
        <CharString name="Djecyrillic">
          1329 513 rmoveto
          243 -130 140 -211 -102 -94 -31 -46 -67 vhcurveto
          -10 1 69 378 rlineto
          339 43 callsubr
          -910 hlineto
          -41 -245 rlineto
          313 hlineto
          -213 143 callgsubr
          258 hlineto
          102 574 rlineto
          43 41 78 35 85 hhcurveto
          118 56 -73 -128 -159 -91 -109 -123 -28 -36 6 9 -26 hvcurveto
          -41 -236 rlineto
          -12 27 80 -13 56 hhcurveto
          283 177 243 333 hvcurveto
          endchar
        </CharString>
        <CharString name="Dlinebelow">
          -93 callsubr
          216 -1617 -95 callsubr
          endchar
        </CharString>
        <CharString name="Dzecyrillic">
          -104 callgsubr
          endchar
        </CharString>
        <CharString name="Dzhecyrillic">
          449 -285 rmoveto
          267 hlineto
          50 285 rlineto
          419 -50 callsubr
          -284 hlineto
          -213 143 callgsubr
          -536 hlineto
          213 197 callgsubr
          418 hlineto
          endchar
        </CharString>
        <CharString name="E">
          1149 245 -27 callgsubr
        </CharString>
        <CharString name="Eacute">
          1149 245 -104 callsubr
          -338 1602 66 callsubr
        </CharString>
        <CharString name="Ebreve">
          1149 245 -104 callsubr
          -181 1591 rmoveto
          171 callgsubr
          -200 hlineto
          -105 -22 -85 -67 -109 141 callgsubr
        </CharString>
        <CharString name="Ecaron">
          1149 245 -104 callsubr
          -316 1594 rmoveto
          256 hlineto
          -16 callgsubr
          endchar
        </CharString>
        <CharString name="Ecedilla">
          1321 1198 -7 callgsubr
        </CharString>
        <CharString name="Ecedillabreve">
          1156 1927 rmoveto
          -105 -22 -85 -67 -109 150 callgsubr
          171 callgsubr
          -35 -729 -7 callgsubr
        </CharString>
        <CharString name="Ecircumflex">
          1149 245 -104 callsubr
          15 1936 119 callgsubr
          endchar
        </CharString>
        <CharString name="Ecircumflexacute">
          1149 245 -104 callsubr
          88 1877 rmoveto
          229 hlineto
          260 287 109 callsubr
          -337 -324 240 callsubr
          -41 callgsubr
          endchar
        </CharString>
        <CharString name="Ecircumflexbelow">
          1149 245 -104 callsubr
          -638 -160 37 callgsubr
        </CharString>
        <CharString name="Ecircumflexdotbelow">
          1149 245 -104 callsubr
          15 1936 119 callgsubr
          -758 -2077 -25 callsubr
        </CharString>
        <CharString name="Ecircumflexgrave">
          1149 245 -104 callsubr
          368 168 callgsubr
          -160 -37 240 callsubr
          -17 callsubr
          endchar
        </CharString>
        <CharString name="Ecircumflexhookabove">
          1149 245 -104 callsubr
          -12 1840 240 callsubr
          -17 callsubr
          -186 448 4 callgsubr
          -84 70 -120 -47 -46 -8 -14 -46 vhcurveto
          endchar
        </CharString>
        <CharString name="Ecircumflextilde">
          1149 245 -104 callsubr
          -14 1840 240 callsubr
          -41 callgsubr
          -460 453 rmoveto
          90 21 -118 159 hhcurveto
          132 103 107 143 18 hvcurveto
          -169 hlineto
          -64 -12 112 callgsubr
        </CharString>
        <CharString name="Ecyrillic">
          -37 callgsubr
          endchar
        </CharString>
        <CharString name="Edblgrave">
          1074 166 callsubr
          -244 hlineto
          203 59 callgsubr
          202 -318 rlineto
          220 hlineto
          315 -1357 -27 callgsubr
        </CharString>
        <CharString name="Edieresis">
          1149 245 -104 callsubr
          -390 1619 -84 callgsubr
          -67 -69 -83 -83 67 -69 80 hvcurveto
          endchar
        </CharString>
        <CharString name="Edotaccent">
          1149 245 -104 callsubr
          -159 1597 -53 callsubr
          endchar
        </CharString>
        <CharString name="Edotbelow">
          1149 245 -104 callsubr
          -522 -476 -25 callsubr
        </CharString>
        <CharString name="Efcyrillic">
          400 760 rmoveto
          37 226 96 113 159 5 -133 -741 rcurveline
          -114 17 -62 80 138 vvcurveto
          27 2 22 5 36 vhcurveto
          1 19 6 36 3 22 rrcurveto
          967 -95 rmoveto
          4 24 8 50 2 22 rrcurveto
          4 30 2 31 36 vvcurveto
          255 -135 151 -250 31 vhcurveto
          31 178 rlineto
          -281 hlineto
          -29 -158 -317 -3 -189 -168 -62 -360 rlinecurve
          -4 -25 -9 -50 -2 -23 rrcurveto
          -3 -30 -2 -32 -35 vvcurveto
          -256 133 -148 252 -31 vhcurveto
          -33 -184 rlineto
          283 hlineto
          29 163 315 3 192 170 61 359 rlinecurve
          -404 419 rmoveto
          115 -18 60 -80 -139 vvcurveto
          -25 -2 -25 -4 -34 vhcurveto
          -2 -18 -5 -35 -3 -21 -38 -228 -95 -111 -159 -5 rrcurveto
          endchar
        </CharString>
        <CharString name="Egrave">
          834 22 callgsubr
          112 -1357 -27 callgsubr
        </CharString>
        <CharString name="Ehookabove">
          1149 245 -104 callsubr
          -352 1833 rmoveto
          12 27 48 8 44 hhcurveto
          64 35 24 callsubr
          endchar
        </CharString>
        <CharString name="Einvertedbreve">
          1149 245 -104 callsubr
          -118 1927 rmoveto
          161 callsubr
          -37 228 callsubr
          89 callgsubr
          -151 176 callgsubr
        </CharString>
        <CharString name="Elcyrillic">
          1411 57 callsubr
          -905 hlineto
          62 callsubr
          -213 143 callgsubr
          278 hlineto
          endchar
        </CharString>
        <CharString name="Emacron">
          1149 245 -104 callsubr
          181 78 callgsubr
          endchar
        </CharString>
        <CharString name="Emacronacute">
          555 98 callsubr
          312 -1657 -27 callgsubr
        </CharString>
        <CharString name="Emacrongrave">
          1149 245 -104 callsubr
          -20 1902 rmoveto
          -115 45 callgsubr
        </CharString>
        <CharString name="Emcyrillic">
          -76 callgsubr
          endchar
        </CharString>
        <CharString name="Encyrillic">
          -81 callgsubr
          endchar
        </CharString>
        <CharString name="Eogonek">
          810 -17 rmoveto
          -124 -48 -64 -83 -106 vvcurveto
          -120 112 -85 157 53 47 7 12 32 vhcurveto
          27 157 rlineto
          -4 -17 -32 -3 -26 hhcurveto
          -78 -50 39 60 94 91 67 174 32 hvcurveto
          41 243 rlineto
          -629 hlineto
          69 371 rlineto
          588 hlineto
          38 227 rlineto
          -588 hlineto
          65 355 rlineto
          625 43 callsubr
          -910 -98 callsubr
          615 hlineto
          endchar
        </CharString>
        <CharString name="Epsilongreek">
          1149 245 -27 callgsubr
        </CharString>
        <CharString name="Epsilontonosgreek">
          1215 245 rmoveto
          -423 hlineto
          68 371 rlineto
          386 hlineto
          38 227 rlineto
          -386 hlineto
          65 355 rlineto
          424 hlineto
          40 245 rlineto
          -695 -98 callsubr
          695 hlineto
          -975 1067 -20 callsubr
          endchar
        </CharString>
        <CharString name="Ercyrillic">
          -75 callsubr
          endchar
        </CharString>
        <CharString name="Ereversedcyrillic">
          -99 callgsubr
          endchar
        </CharString>
        <CharString name="Escyrillic">
          -96 callsubr
          endchar
        </CharString>
        <CharString name="Etagreek">
          -81 callgsubr
          endchar
        </CharString>
        <CharString name="Etatonosgreek">
          1208 106 callgsubr
          -249 hlineto
          -106 -602 rlineto
          -277 hlineto
          106 602 rlineto
          -249 -98 callsubr
          249 hlineto
          111 624 rlineto
          277 hlineto
          -111 -624 rlineto
          -768 1067 -20 callsubr
          endchar
        </CharString>
        <CharString name="Eth">
          447 245 rmoveto
          66 368 rlineto
          237 hlineto
          38 230 rlineto
          -233 hlineto
          64 358 rlineto
          115 hlineto
          195 108 -117 -212 -37 -2 -39 -3 -33 hvcurveto
          -2 -21 -11 -60 -2 -14 rrcurveto
          -286 -50 -129 -137 -244 hhcurveto
          -219 1198 rmoveto
          -106 -600 rlineto
          -123 hlineto
          -38 -230 rlineto
          121 hlineto
          -108 -613 rlineto
          513 hlineto
          375 227 220 431 75 hvcurveto
          4 22 12 69 2 24 rrcurveto
          4 37 2 43 44 vvcurveto
          350 -203 203 -349 vhcurveto
          endchar
        </CharString>
        <CharString name="Etilde">
          1149 245 -104 callsubr
          -309 1735 -57 callsubr
        </CharString>
        <CharString name="Etildebelow">
          1149 245 -104 callsubr
          -663 39 callsubr
        </CharString>
        <CharString name="Euro">
          1458 1439 rmoveto
          18 -50 -109 13 -95 hhcurveto
          -389 -264 -182 -342 -113 hvcurveto
          -175 hlineto
          -26 -150 rlineto
          161 hlineto
          -14 -49 -8 -46 -2 -51 rrcurveto
          -164 hlineto
          -26 -152 rlineto
          197 hlineto
          -333 50 271 -192 426 hhcurveto
          15 42 0 2 17 hvcurveto
          42 249 rlineto
          -1 -9 -38 -1 -31 hhcurveto
          -250 -167 100 176 -60 hvcurveto
          501 hlineto
          26 152 rlineto
          -551 6 hlineto
          52 5 37 18 51 vhcurveto
          555 hlineto
          25 150 rlineto
          -526 hlineto
          173 87 168 99 223 hhcurveto
          67 73 -8 -15 57 hvcurveto
          endchar
        </CharString>
        <CharString name="F">
          15 callsubr
          endchar
        </CharString>
        <CharString name="Fdotaccent">
          15 callsubr
          763 1597 -53 callsubr
          endchar
        </CharString>
        <CharString name="G">
          -101 callgsubr
          endchar
        </CharString>
        <CharString name="Gacute">
          -101 callgsubr
          -527 1160 66 callsubr
        </CharString>
        <CharString name="Gammagreek">
          231 hmoveto
          285 hlineto
          87 callsubr
          627 43 callsubr
          -912 hlineto
          endchar
        </CharString>
        <CharString name="Gbreve">
          -101 callgsubr
          -370 1149 rmoveto
          171 callgsubr
          -200 hlineto
          -105 -22 -86 -67 -108 141 callgsubr
        </CharString>
        <CharString name="Gcaron">
          -101 callgsubr
          -505 1152 rmoveto
          256 hlineto
          -16 callgsubr
          endchar
        </CharString>
        <CharString name="Gcircumflex">
          -101 callgsubr
          -174 1494 rmoveto
          -257 hlineto
          -338 25 callsubr
        </CharString>
        <CharString name="Gcommaaccent">
          -101 callgsubr
          -667 -946 19 callgsubr
        </CharString>
        <CharString name="Gdotaccent">
          -101 callgsubr
          -348 1155 -53 callsubr
          endchar
        </CharString>
        <CharString name="Gecyrillic">
          1471 1443 rmoveto
          -1166 -1 callsubr
          endchar
        </CharString>
        <CharString name="Geupturncyrillic">
          1520 1725 rmoveto
          -254 hlineto
          -49 -282 rlineto
          -912 -1 callsubr
          49 283 rlineto
          endchar
        </CharString>
        <CharString name="Gjecyrillic">
          1391 121 callsubr
          428 -159 rmoveto
          -1166 -1 callsubr
          endchar
        </CharString>
        <CharString name="Gmacron">
          -101 callgsubr
          -8 1213 -95 callsubr
          endchar
        </CharString>
        <CharString name="H">
          -81 callgsubr
          endchar
        </CharString>
        <CharString name="Hardsigncyrillic">
          739 957 rmoveto
          86 486 rlineto
          -558 hlineto
          -40 -245 rlineto
          273 hlineto
          -214 143 callgsubr
          490 hlineto
          326 214 219 327 247 -154 164 -233 hvcurveto
          -236 -235 rmoveto
          152 hlineto
          117 68 -73 -123 -172 -108 -116 -167 hvcurveto
          -150 hlineto
          endchar
        </CharString>
        <CharString name="Hbar">
          569 849 rmoveto
          39 218 rlineto
          423 hlineto
          -40 -218 rlineto
          -454 -239 rmoveto
          406 hlineto
          -109 -610 229 callsubr
          187 1061 rlineto
          106 hlineto
          33 196 rlineto
          -106 hlineto
          34 186 rlineto
          -285 hlineto
          -33 -186 rlineto
          -406 hlineto
          33 186 192 callgsubr
          -34 -186 rlineto
          -102 hlineto
          -32 -196 rlineto
          101 hlineto
          -187 -1061 138 callsubr
          endchar
        </CharString>
        <CharString name="Hbrevebelow">
          -81 callgsubr
          -286 -469 183 callgsubr
          145 26 callsubr
          -196 hlineto
          -195 -36 159 156 callsubr
          endchar
        </CharString>
        <CharString name="Hcaron">
          -81 callgsubr
          -97 99 callsubr
        </CharString>
        <CharString name="Hcedilla">
          397 hmoveto
          108 610 rlineto
          473 hlineto
          -109 -610 rlineto
          279 -50 callsubr
          -279 hlineto
          -104 -588 rlineto
          -472 hlineto
          104 588 rlineto
          -279 -98 callsubr
          106 hlineto
          -50 -113 186 callsubr
          -41 -56 8 9 -24 35 callsubr
          46 hhcurveto
          184 151 callgsubr
          80 -58 59 -94 16 hvcurveto
          endchar
        </CharString>
        <CharString name="Hcircumflex">
          -81 callgsubr
          234 1936 rmoveto
          -257 hlineto
          -338 25 callsubr
        </CharString>
        <CharString name="Hdieresis">
          -81 callgsubr
          -171 76 callsubr
          461 hmoveto
          168 callsubr
          endchar
        </CharString>
        <CharString name="Hdotaccent">
          -81 callgsubr
          60 1597 rmoveto
          86 72 73 90 89 -72 73 -86 218 callgsubr
        </CharString>
        <CharString name="Hdotbelow">
          -81 callgsubr
          -291 40 callgsubr
          endchar
        </CharString>
        <CharString name="I">
          1074 hmoveto
          67 callsubr
        </CharString>
        <CharString name="IAcyrillic">
          964 525 -72 callgsubr
        </CharString>
        <CharString name="IJ">
          857 -36 -2 callsubr
        </CharString>
        <CharString name="IJacute">
          446 1601 rmoveto
          263 hlineto
          349 56 callsubr
          303 -318 -43 callsubr
          -519 -1955 -2 callsubr
        </CharString>
        <CharString name="IUcyrillic">
          -96 callgsubr
          endchar
        </CharString>
        <CharString name="Iacute">
          1074 hmoveto
          -100 callgsubr
          571 1602 -43 callsubr
          endchar
        </CharString>
        <CharString name="Ibreve">
          1074 hmoveto
          -100 callgsubr
          727 1591 rmoveto
          222 94 callgsubr
          -105 -65 87 callgsubr
          221 hhcurveto
          endchar
        </CharString>
        <CharString name="Icaron">
          1074 hmoveto
          -100 callgsubr
          592 1594 -54 callgsubr
        </CharString>
        <CharString name="Icircumflex">
          1074 hmoveto
          -100 callgsubr
          923 1936 0 callsubr
          18 218 callsubr
        </CharString>
        <CharString name="Icyrillic">
          1074 hmoveto
          67 callsubr
        </CharString>
        <CharString name="Idblgrave">
          1067 166 callsubr
          -244 129 callgsubr
          247 58 callsubr
        </CharString>
        <CharString name="Idieresis">
          1074 hmoveto
          -100 callgsubr
          519 1619 rmoveto
          79 68 69 83 83 -68 69 -79 -72 callsubr
        </CharString>
        <CharString name="Idieresisacute">
          1074 hmoveto
          -100 callgsubr
          612 1923 rmoveto
          233 hlineto
          247 241 rlineto
          -273 hlineto
          -311 -602 rmoveto
          12 callgsubr
          455 hmoveto
          12 callgsubr
          endchar
        </CharString>
        <CharString name="Idotaccent">
          1074 hmoveto
          -100 callgsubr
          750 1597 -30 callsubr
          endchar
        </CharString>
        <CharString name="Idotbelow">
          1074 hmoveto
          -100 callgsubr
          385 149 callgsubr
          endchar
        </CharString>
        <CharString name="Iecyrillic">
          1149 245 -27 callgsubr
        </CharString>
        <CharString name="Igrave">
          827 120 callsubr
          44 58 callsubr
        </CharString>
        <CharString name="Ihookabove">
          1074 hmoveto
          -100 callgsubr
          556 1833 rmoveto
          12 27 48 8 45 -14 callsubr
        </CharString>
        <CharString name="Iicyrillic">
          379 1443 -63 callgsubr
        </CharString>
        <CharString name="Iinvertedbreve">
          1074 hmoveto
          -100 callgsubr
          791 1927 25 callgsubr
          27 -151 176 callgsubr
        </CharString>
        <CharString name="Iishortcyrillic">
          1141 1945 rmoveto
          14 callsubr
          -44 callgsubr
          -966 -502 -63 callgsubr
        </CharString>
        <CharString name="Imacron">
          1074 hmoveto
          -100 callgsubr
          1090 78 callgsubr
          endchar
        </CharString>
        <CharString name="Iocyrillic">
          1149 245 -104 callsubr
          -390 1619 -84 callgsubr
          -67 -69 -83 -83 67 -69 80 hvcurveto
          endchar
        </CharString>
        <CharString name="Iogonek">
          785 hmoveto
          -2 -17 rlineto
          -119 -45 -69 -85 -100 vvcurveto
          -125 110 -87 158 54 47 7 12 31 vhcurveto
          28 157 rlineto
          -5 -24 -23 -2 -29 hhcurveto
          -75 -53 42 57 93 91 70 164 30 hvcurveto
          41 242 62 callgsubr
          172 955 rlineto
          299 hlineto
          128 callgsubr
          -882 223 callgsubr
          299 hlineto
          -173 -955 62 callgsubr
          128 callsubr
          endchar
        </CharString>
        <CharString name="Iotadieresisgreek">
          1074 hmoveto
          -100 callgsubr
          519 1619 rmoveto
          79 68 69 83 83 -68 69 -79 -72 callsubr
        </CharString>
        <CharString name="Iotagreek">
          1074 hmoveto
          67 callsubr
        </CharString>
        <CharString name="Iotatonosgreek">
          1184 hmoveto
          128 callgsubr
          -237 hlineto
          173 955 rlineto
          236 hlineto
          128 callgsubr
          -717 223 callgsubr
          235 hlineto
          -173 -955 rlineto
          -235 hlineto
          128 callsubr
          -222 1067 -20 callsubr
          endchar
        </CharString>
        <CharString name="Iotatonosgreek.1">
          946 hmoveto
          254 1443 235 callgsubr
          -362 1067 rmoveto
          184 hlineto
          232 71 callgsubr
          endchar
        </CharString>
        <CharString name="Itilde">
          1074 hmoveto
          -100 callgsubr
          600 1735 44 callgsubr
        </CharString>
        <CharString name="Itildebelow">
          1074 hmoveto
          -100 callgsubr
          244 84 callsubr
          -103 -119 -198 -25 hvcurveto
          184 80 callgsubr
        </CharString>
        <CharString name="J">
          -38 callgsubr
          endchar
        </CharString>
        <CharString name="Jcircumflex">
          -38 callgsubr
          499 1965 119 callgsubr
          endchar
        </CharString>
        <CharString name="Jecyrillic">
          -38 callgsubr
          endchar
        </CharString>
        <CharString name="K">
          -78 callsubr
          endchar
        </CharString>
        <CharString name="Kacute">
          -78 callsubr
          -465 1602 rmoveto
          263 hlineto
          349 56 callsubr
          endchar
        </CharString>
        <CharString name="Kacyrillic">
          657 57 callsubr
          -283 hlineto
          -254 -1443 72 callsubr
          685 725 rlineto
          169 callsubr
          endchar
        </CharString>
        <CharString name="Kappagreek">
          -78 callsubr
          endchar
        </CharString>
        <CharString name="Kcaron">
          -78 callsubr
          -443 1594 rmoveto
          256 hlineto
          339 70 callsubr
          -188 13 callgsubr
          endchar
        </CharString>
        <CharString name="Kcommaaccent">
          -78 callsubr
          -661 -504 rmoveto
          205 33 callgsubr
        </CharString>
        <CharString name="Kdotbelow">
          -78 callsubr
          -643 -476 -25 callsubr
        </CharString>
        <CharString name="Kjecyrillic">
          711 1602 -31 callsubr
          -367 -477 rmoveto
          -283 hlineto
          -254 -1443 72 callsubr
          685 725 rlineto
          169 callsubr
          endchar
        </CharString>
        <CharString name="Klinebelow">
          -78 callsubr
          -301 -416 -95 callsubr
          endchar
        </CharString>
        <CharString name="L">
          -52 callgsubr
          endchar
        </CharString>
        <CharString name="Lacute">
          -52 callgsubr
          -642 1602 -43 callsubr
          endchar
        </CharString>
        <CharString name="Lambdagreek">
          45 hmoveto
          295 hlineto
          493 1146 rlineto
          13 hlineto
          78 -1146 226 callsubr
          -163 182 callgsubr
          endchar
        </CharString>
        <CharString name="Lcaron">
          1028 57 callsubr
          -87 -500 rlineto
          185 hlineto
          133 500 rlineto
          -73 -1192 rmoveto
          -632 hlineto
          212 1192 rlineto
          -281 -98 callsubr
          913 hlineto
          endchar
        </CharString>
        <CharString name="Lcircumflexbelow">
          -52 callgsubr
          -631 -160 rmoveto
          -330 -91 callsubr
          endchar
        </CharString>
        <CharString name="Lcommaaccent">
          -52 callgsubr
          -532 -504 19 callgsubr
        </CharString>
        <CharString name="Ldot">
          -52 callgsubr
          1 941 1 callsubr
        </CharString>
        <CharString name="Ldotbelow">
          -52 callgsubr
          -515 149 callgsubr
          endchar
        </CharString>
        <CharString name="Ldotbelowmacron">
          -52 callgsubr
          -515 149 callgsubr
          392 2131 190 callgsubr
        </CharString>
        <CharString name="Ljecyrillic">
          920 723 rmoveto
          62 hlineto
          87 46 -62 -115 -185 -89 -126 -130 hvcurveto
          -64 hlineto
          -224 994 rmoveto
          183 hlineto
          -218 -1229 rlineto
          326 hlineto
          273 177 244 352 224 -111 135 -202 hvcurveto
          -62 hlineto
          87 488 rlineto
          -643 hlineto
          -144 -755 rlineto
          -348 -75 -35 -100 -83 hhcurveto
          -14 -17 4 3 -10 hvcurveto
          -42 -246 rlineto
          -6 18 44 -7 41 hhcurveto
          226 68 166 526 108 hvcurveto
          endchar
        </CharString>
        <CharString name="Llinebelow">
          -52 callgsubr
          -173 -416 -95 callsubr
          endchar
        </CharString>
        <CharString name="Lslash">
          629 670 rmoveto
          526 262 40 239 -524 -262 95 534 rlineto
          -281 hlineto
          -121 -688 -188 -94 -40 -236 186 93 -91 -518 rlineto
          913 hlineto
          42 251 rlineto
          -632 hlineto
          endchar
        </CharString>
        <CharString name="M">
          -76 callgsubr
          endchar
        </CharString>
        <CharString name="Macute">
          -76 callgsubr
          439 1602 66 callsubr
        </CharString>
        <CharString name="Mdotaccent">
          -76 callgsubr
          618 1597 -53 callsubr
          endchar
        </CharString>
        <CharString name="Mdotbelow">
          -76 callgsubr
          253 40 callgsubr
          endchar
        </CharString>
        <CharString name="Mugreek">
          -76 callgsubr
          endchar
        </CharString>
        <CharString name="N">
          373 hmoveto
          -86 callgsubr
          endchar
        </CharString>
        <CharString name="Nacute">
          373 hmoveto
          -86 callgsubr
          636 1602 -43 callsubr
          endchar
        </CharString>
        <CharString name="Ncaron">
          373 hmoveto
          -86 callgsubr
          658 99 callsubr
        </CharString>
        <CharString name="Ncircumflexbelow">
          373 hmoveto
          -86 callgsubr
          329 -160 31 callsubr
        </CharString>
        <CharString name="Ncommaaccent">
          373 hmoveto
          -86 callgsubr
          428 -504 rmoveto
          204 33 callgsubr
        </CharString>
        <CharString name="Ndotaccent">
          373 hmoveto
          -86 callgsubr
          815 1597 -53 callsubr
          endchar
        </CharString>
        <CharString name="Ndotbelow">
          373 hmoveto
          -86 callgsubr
          445 -476 -25 callsubr
        </CharString>
        <CharString name="Ngrave">
          827 121 callgsubr
          -657 -1602 rmoveto
          -86 callgsubr
          endchar
        </CharString>
        <CharString name="Njecyrillic">
          287 hmoveto
          112 630 101 callgsubr
          -112 -630 rlineto
          309 hlineto
          284 166 183 325 240 -122 116 -201 hvcurveto
          -60 hlineto
          103 579 rlineto
          -225 hlineto
          -103 -579 226 callgsubr
          103 579 rlineto
          -224 -98 callsubr
          827 637 rmoveto
          73 hlineto
          87 48 -56 -99 -161 -76 -109 -135 hvcurveto
          -74 hlineto
          endchar
        </CharString>
        <CharString name="Nlinebelow">
          373 hmoveto
          -86 callgsubr
          787 -416 -95 callsubr
          endchar
        </CharString>
        <CharString name="Ntilde">
          373 hmoveto
          -86 callgsubr
          665 1735 -57 callsubr
        </CharString>
        <CharString name="Nugreek">
          373 hmoveto
          -86 callgsubr
          endchar
        </CharString>
        <CharString name="NumberSignCyrillic">
          232 callsubr
          89 -947 rlineto
          210 -50 callsubr
          -192 hlineto
          -169 -941 rlineto
          -19 hlineto
          -89 941 rlineto
          -211 -98 callsubr
          1278 843 rmoveto
          22 124 rlineto
          -336 hlineto
          -22 -124 rlineto
          243 269 rmoveto
          95 76 77 95 95 -76 77 -95 -95 -76 -77 -95 -95 76 -77 95 hvcurveto
          endchar
        </CharString>
        <CharString name="O">
          -106 callsubr
          endchar
        </CharString>
        <CharString name="OE">
          445 858 rmoveto
          202 36 74 100 111 hhcurveto
          100 52 -67 -130 -58 -5 -54 -13 -67 hvcurveto
          -38 -206 rlineto
          -199 -36 -73 -96 -115 hhcurveto
          -91 -55 71 119 58 6 66 11 65 hvcurveto
          295 -469 rmoveto
          11 hlineto
          -33 -193 rlineto
          569 hlineto
          44 263 rlineto
          -347 hlineto
          64 341 rlineto
          311 hlineto
          42 247 rlineto
          -312 hlineto
          61 328 rlineto
          348 hlineto
          43 264 rlineto
          -569 hlineto
          -39 -223 rlineto
          -12 hlineto
          164 -20 -92 93 -154 hhcurveto
          -225 -137 -178 -387 -66 hvcurveto
          -44 -249 rlineto
          -19 -117 -9 -96 -103 vvcurveto
          -237 113 -144 185 138 76 62 165 73 vhcurveto
          endchar
        </CharString>
        <CharString name="Oacute">
          -106 callsubr
          61 1379 66 callsubr
        </CharString>
        <CharString name="Obreve">
          -106 callsubr
          218 1368 rmoveto
          171 callgsubr
          -200 hlineto
          54 callgsubr
          endchar
        </CharString>
        <CharString name="Ocaron">
          -106 callsubr
          83 1371 rmoveto
          256 hlineto
          -16 callgsubr
          endchar
        </CharString>
        <CharString name="Ocircumflex">
          -106 callsubr
          414 1713 119 callgsubr
          endchar
        </CharString>
        <CharString name="Ocircumflexacute">
          -106 callsubr
          487 1654 rmoveto
          229 hlineto
          260 287 109 callsubr
          -337 -324 240 callsubr
          -41 callgsubr
          endchar
        </CharString>
        <CharString name="Ocircumflexdotbelow">
          -106 callsubr
          414 1713 119 callgsubr
          -758 -2077 -92 callgsubr
          endchar
        </CharString>
        <CharString name="Ocircumflexgrave">
          -106 callsubr
          767 1654 86 callgsubr
          -160 -37 240 callsubr
          -17 callsubr
          endchar
        </CharString>
        <CharString name="Ocircumflexhookabove">
          -106 callsubr
          387 1617 240 callsubr
          -17 callsubr
          -186 448 4 callgsubr
          -84 70 -120 -47 -46 -8 -14 -46 vhcurveto
          endchar
        </CharString>
        <CharString name="Ocircumflextilde">
          -106 callsubr
          385 1617 240 callsubr
          -41 callgsubr
          -460 453 rmoveto
          91 20 -118 159 hhcurveto
          132 103 107 143 18 hvcurveto
          -169 hlineto
          115 callgsubr
          hhcurveto
          endchar
        </CharString>
        <CharString name="Ocyrillic">
          -106 callsubr
          endchar
        </CharString>
        <CharString name="Odblgrave">
          1066 166 callsubr
          -244 hlineto
          203 59 callgsubr
          202 -318 rlineto
          220 hlineto
          -306 -741 -83 callgsubr
        </CharString>
        <CharString name="Odieresis">
          -106 callsubr
          9 1396 -84 callgsubr
          -67 -69 -83 -83 67 -69 80 hvcurveto
          endchar
        </CharString>
        <CharString name="Odieresismacron">
          -106 callsubr
          458 1634 55 callgsubr
          201 279 rmoveto
          -731 hlineto
          -28 -167 rlineto
          730 hlineto
          -627 -112 rmoveto
          163 callgsubr
          -65 78 78 65 65 82 82 -65 66 -78 hvcurveto
          endchar
        </CharString>
        <CharString name="Odotaccent">
          -106 callsubr
          240 1374 -53 callsubr
          endchar
        </CharString>
        <CharString name="Odotaccentmacron">
          925 114 callsubr
          29 167 rlineto
          -731 hlineto
          -113 -1275 -83 callgsubr
        </CharString>
        <CharString name="Odotbelow">
          -106 callsubr
          -123 -699 -92 callgsubr
          endchar
        </CharString>
        <CharString name="Ograve">
          826 22 callgsubr
          -509 -741 -83 callgsubr
        </CharString>
        <CharString name="Ohookabove">
          -106 callsubr
          47 1610 rmoveto
          12 27 48 8 44 hhcurveto
          65 34 24 callsubr
          endchar
        </CharString>
        <CharString name="Ohorn">
          520 861 -93 callgsubr
          endchar
        </CharString>
        <CharString name="Ohornacute">
          755 1602 -31 callsubr
          -548 -1059 -93 callgsubr
          endchar
        </CharString>
        <CharString name="Ohorndotbelow">
          73 callgsubr
          -58 1337 -93 callgsubr
          endchar
        </CharString>
        <CharString name="Ohorngrave">
          871 120 callsubr
          242 -861 rmoveto
          13 72 7 67 92 vvcurveto
          82 -22 79 -45 80 vhcurveto
          2 13 rlineto
          38 hlineto
          134 -3 93 75 32 136 5 11 31 187 10 45 rrcurveto
          -217 hlineto
          60 callsubr
          -72 -13 -47 -38 -77 -160 -33 65 -208 hhcurveto
          -318 -211 -201 -369 -65 hvcurveto
          -40 -220 rlineto
          -11 -55 -3 -55 -105 vvcurveto
          -290 209 -206 294 323 205 197 375 68 vhcurveto
          -762 318 rmoveto
          247 45 96 112 156 hhcurveto
          143 -6 callgsubr
          -58 -4 -43 -10 -61 117 callgsubr
          -95 -114 -157 hhcurveto
          -144 -91 100 160 55 5 45 11 66 hvcurveto
          endchar
        </CharString>
        <CharString name="Ohornhookabove">
          520 861 -93 callgsubr
          -530 1290 rmoveto
          12 26 49 8 44 -14 callsubr
        </CharString>
        <CharString name="Ohorntilde">
          1162 1885 rmoveto
          183 callsubr
          -82 -36 -26 callsubr
          -11 callgsubr
          -814 -1024 -93 callgsubr
          endchar
        </CharString>
        <CharString name="Ohungarumlaut">
          -106 callsubr
          327 1379 rmoveto
          226 hlineto
          313 318 rlineto
          -249 hlineto
          -709 -318 rmoveto
          227 hlineto
          313 318 rlineto
          -251 hlineto
          endchar
        </CharString>
        <CharString name="Oinvertedbreve">
          -106 callsubr
          281 1704 rmoveto
          161 callsubr
          -36 hvcurveto
          200 hlineto
          89 callgsubr
          -150 146 -222 hhcurveto
          endchar
        </CharString>
        <CharString name="Omacron">
          -106 callsubr
          580 1432 -95 callsubr
          endchar
        </CharString>
        <CharString name="Omacronacute">
          547 98 callsubr
          -309 -1041 -83 callgsubr
        </CharString>
        <CharString name="Omacrongrave">
          -106 callsubr
          380 1679 rmoveto
          -116 45 callgsubr
        </CharString>
        <CharString name="Omegagreek">
          831 1473 rmoveto
          -306 -200 -178 -264 -83 hvcurveto
          -16 -45 -23 -102 -7 -50 rrcurveto
          -8 -48 -3 -51 -52 vvcurveto
          -188 63 -151 113 -91 vhcurveto
          -3 -16 rlineto
          -251 hlineto
          -40 -237 rlineto
          489 hlineto
          51 297 -106 76 -50 126 -1 142 rlinecurve
          34 2 34 4 34 vhcurveto
          5 62 22 105 18 44 rrcurveto
          169 52 111 97 151 hhcurveto
          180 91 -112 -213 -43 -2 -40 -10 -54 hvcurveto
          -9 -66 -28 -88 -30 -48 -47 -125 -90 -94 -115 -43 -49 -294 rcurveline
          511 hlineto
          39 237 141 callsubr
          3 16 177 96 109 142 47 208 rlinecurve
          6 26 12 62 3 29 rrcurveto
          7 48 2 49 40 vvcurveto
          334 -185 186 -345 vhcurveto
          endchar
        </CharString>
        <CharString name="Omegatonosgreek">
          975 1470 rmoveto
          -281 -181 -201 -389 -69 hvcurveto
          -6 -37 -16 -88 -3 -32 rrcurveto
          -6 -47 -3 -45 -42 vvcurveto
          -155 45 -124 82 -84 vhcurveto
          -3 -16 rlineto
          -196 hlineto
          -35 -210 rlineto
          401 hlineto
          58 346 rlineto
          -75 58 -35 80 110 vvcurveto
          33 2 42 7 45 vhcurveto
          3 29 16 85 7 42 rrcurveto
          247 44 82 104 143 hhcurveto
          135 63 -79 -161 -33 -1 -31 -8 -46 hvcurveto
          -2 -21 -9 -51 -4 -24 -46 -262 -66 -109 -135 -66 -58 -338 rcurveline
          414 hlineto
          36 210 rlineto
          -196 hlineto
          3 16 164 114 78 144 46 266 rlinecurve
          4 29 11 61 2 26 rrcurveto
          7 48 2 50 39 vvcurveto
          306 -144 161 -277 vhcurveto
          -802 -403 190 callsubr
        </CharString>
        <CharString name="Omicrongreek">
          -106 callsubr
          endchar
        </CharString>
        <CharString name="Omicrontonosgreek">
          669 435 rmoveto
          48 5 56 12 70 vhcurveto
          49 282 rlineto
          224 41 83 105 109 hhcurveto
          106 47 -77 -130 -40 -6 -74 -14 -78 hvcurveto
          -45 -262 rlineto
          -229 -41 -80 -107 -114 hhcurveto
          -111 -41 82 130 hvcurveto
          635 131 rmoveto
          40 223 rlineto
          18 107 7 84 55 vvcurveto
          280 -127 158 -253 -264 -164 -191 -401 -69 vhcurveto
          -35 -203 rlineto
          -22 -125 -8 -78 -65 vvcurveto
          -286 128 -154 251 265 162 191 405 71 vhcurveto
          -1094 501 rmoveto
          184 hlineto
          232 376 rlineto
          -262 hlineto
          endchar
        </CharString>
        <CharString name="Oogonek">
          838 -452 -50 callgsubr
        </CharString>
        <CharString name="Oogonekmacron">
          1285 78 callgsubr
          272 -2107 -50 callgsubr
        </CharString>
        <CharString name="Oslash">
          1000 587 -46 callgsubr
        </CharString>
        <CharString name="Oslashacute">
          1360 121 callsubr
          -12 -1015 -46 callgsubr
        </CharString>
        <CharString name="Otilde">
          -106 callsubr
          90 1512 -57 callsubr
        </CharString>
        <CharString name="Otildeacute">
          -106 callsubr
          121 1713 rmoveto
          227 hlineto
          161 239 rlineto
          -255 107 callsubr
          -87 -25 196 callgsubr
          173 hlineto
          79 12 32 39 47 hhcurveto
          endchar
        </CharString>
        <CharString name="Otildedieresis">
          -106 callsubr
          55 1680 rmoveto
          71 58 59 74 74 -58 153 callgsubr
          455 hmoveto
          71 59 59 74 74 -59 153 callgsubr
          -418 -231 rmoveto
          91 20 144 callgsubr
          -90 -21 96 callgsubr
          -155 -20 hvcurveto
          171 hlineto
          68 11 238 callsubr
        </CharString>
        <CharString name="Otildemacron">
          -106 callsubr
          635 1758 rmoveto
          28 167 rlineto
          182 callsubr
          193 -285 47 callsubr
        </CharString>
        <CharString name="P">
          -75 callsubr
          endchar
        </CharString>
        <CharString name="Pacute">
          -75 callsubr
          155 910 rmoveto
          263 hlineto
          349 56 callsubr
          endchar
        </CharString>
        <CharString name="Pdotaccent">
          -75 callsubr
          334 905 -53 callsubr
          endchar
        </CharString>
        <CharString name="Pecyrillic">
          1432 57 callsubr
          -1090 -98 callsubr
          284 hlineto
          213 1197 rlineto
          522 hlineto
          -213 -1197 138 callsubr
          endchar
        </CharString>
        <CharString name="Phigreek">
          781 57 rmoveto
          189 2 151 89 103 144 rrcurveto
          105 148 54 204 224 vvcurveto
          288 -132 177 -239 36 vhcurveto
          29 169 rlineto
          -246 hlineto
          -29 -168 -190 -5 -150 -88 -101 -143 rlinecurve
          -105 -145 -54 -202 -229 vvcurveto
          -288 131 -177 240 -35 vhcurveto
          -30 -168 rlineto
          245 hlineto
          -362 654 rmoveto
          147 31 170 70 125 vhcurveto
          59 105 82 73 109 2 -162 -902 rcurveline
          -113 19 -76 83 178 vvcurveto
          768 338 rmoveto
          -147 -31 -170 -70 -125 vhcurveto
          -58 -105 -84 -73 -108 -2 162 902 rcurveline
          113 -19 76 -83 -178 vvcurveto
          endchar
        </CharString>
        <CharString name="Pigreek">
          121 hmoveto
          279 hlineto
          87 callsubr
          466 hlineto
          -213 143 callgsubr
          279 -50 callsubr
          -1024 hlineto
          endchar
        </CharString>
        <CharString name="Psigreek">
          498 hmoveto
          269 hlineto
          52 282 318 14 132 125 66 382 rlinecurve
          112 640 rlineto
          -237 hlineto
          -106 -609 -47 -261 -59 -72 -159 -5 rlinecurve
          167 947 rlineto
          -238 hlineto
          -165 -933 rlineto
          -115 17 -45 51 110 vvcurveto
          43 7 57 15 85 vhcurveto
          99 570 rlineto
          -237 hlineto
          -98 -560 rlineto
          -16 -96 -7 -71 -60 vvcurveto
          -217 107 -103 238 -37 vhcurveto
          endchar
        </CharString>
        <CharString name="Q">
          907 461 rmoveto
          -267 hlineto
          103 -247 rlineto
          -2 -13 -14 -1 -15 hhcurveto
          -146 -91 100 162 60 4 44 12 64 hvcurveto
          38 215 rlineto
          252 45 96 112 159 hhcurveto
          145 93 -101 -158 -57 -4 -48 -10 -58 hvcurveto
          -39 -219 -15 -82 -20 -67 -25 -54 rlinecurve
          -746 306 rmoveto
          -11 -55 -4 -55 -105 vvcurveto
          -290 210 -206 295 54 50 5 11 47 vhcurveto
          61 -145 rlineto
          266 hlineto
          -106 254 113 96 76 150 35 201 rlinecurve
          40 220 rlineto
          10 64 5 58 86 vvcurveto
          295 -208 206 -300 -317 -211 -201 -369 -66 vhcurveto
          endchar
        </CharString>
        <CharString name="R">
          -101 callsubr
          endchar
        </CharString>
        <CharString name="Racute">
          -101 callsubr
          562 1602 -43 callsubr
          endchar
        </CharString>
        <CharString name="Rcaron">
          -101 callsubr
          583 1594 -54 callgsubr
        </CharString>
        <CharString name="Rcommaaccent">
          -101 callsubr
          424 -503 rmoveto
          204 33 callgsubr
        </CharString>
        <CharString name="Rdblgrave">
          1008 166 callsubr
          -243 129 callgsubr
          -343 -1602 rmoveto
          95 531 rlineto
          149 hlineto
          10 52 0 1 7 hvcurveto
          166 -532 rlineto
          301 hlineto
          -187 568 180 54 114 128 31 184 rlinecurve
          6 34 2 33 31 vvcurveto
          252 1 -193 159 -268 hhcurveto
          -495 -98 callsubr
          499 1211 202 callsubr
          135 81 -77 -117 -1 hvcurveto
          -17 -2 -21 -3 -14 vhcurveto
          -134 -28 -99 -82 -172 213 callsubr
          endchar
        </CharString>
        <CharString name="Rdotaccent">
          -101 callsubr
          740 1597 1 callsubr
        </CharString>
        <CharString name="Rdotbelow">
          -101 callsubr
          441 -475 -25 callsubr
        </CharString>
        <CharString name="Rdotbelowmacron">
          -101 callsubr
          441 -475 -47 callgsubr
          639 2130 rmoveto
          32 185 -29 callgsubr
          -31 -185 rlineto
          endchar
        </CharString>
        <CharString name="Rhogreek">
          -75 callsubr
          endchar
        </CharString>
        <CharString name="Rinvertedbreve">
          -101 callsubr
          782 1927 25 callgsubr
          26 -150 176 callgsubr
        </CharString>
        <CharString name="Rlinebelow">
          -101 callsubr
          783 -415 -95 callsubr
          endchar
        </CharString>
        <CharString name="S">
          -104 callgsubr
          endchar
        </CharString>
        <CharString name="Sacute">
          -104 callgsubr
          309 1171 -43 callsubr
          endchar
        </CharString>
        <CharString name="Sacutedotaccent">
          -104 callgsubr
          500 1171 -43 callsubr
          -508 -295 1 callsubr
        </CharString>
        <CharString name="Scaron">
          -104 callgsubr
          330 1163 -54 callgsubr
        </CharString>
        <CharString name="Scarondotaccent">
          -104 callgsubr
          510 1478 rmoveto
          88 62 62 83 83 -62 61 -88 -87 -63 -61 -83 -83 63 -62 87 hvcurveto
          71 -329 rmoveto
          321 266 242 callgsubr
          -173 -146 rlineto
          -19 hlineto
          -122 199 callsubr
        </CharString>
        <CharString name="Scedilla">
          1329 1023 rmoveto
          2 10 0 11 18 vvcurveto
          242 -211 168 -299 -311 -213 -185 -269 -183 109 -129 224 -75 vhcurveto
          126 -42 rlineto
          153 -50 60 -56 -89 vvcurveto
          -109 -106 -77 -150 -166 -114 82 120 12 0 3 1 6 vhcurveto
          -271 hlineto
          -2 -11 -1 -15 -17 vvcurveto
          -200 160 -155 236 -47 vhcurveto
          -60 -103 3 callsubr
          49 85 rlineto
          331 1 213 185 288 vvcurveto
          177 -109 121 -237 79 vhcurveto
          -127 43 rlineto
          -139 46 -58 57 87 vvcurveto
          109 96 72 143 133 99 -82 -108 -16 0 -2 -1 -5 vhcurveto
          endchar
        </CharString>
        <CharString name="Scircumflex">
          -104 callgsubr
          661 1505 0 callsubr
          18 218 callsubr
        </CharString>
        <CharString name="Scommaaccent">
          -104 callgsubr
          120 -941 rmoveto
          204 355 226 callgsubr
          -172 -355 rlineto
          endchar
        </CharString>
        <CharString name="Sdotaccent">
          -104 callgsubr
          488 1166 -30 callsubr
          endchar
        </CharString>
        <CharString name="Sdotbelow">
          -104 callgsubr
          137 -907 -25 callgsubr
        </CharString>
        <CharString name="Sdotbelowdotaccent">
          -104 callgsubr
          137 -907 -53 callgsubr
          351 2073 -30 callsubr
          endchar
        </CharString>
        <CharString name="Shacyrillic">
          1194 106 callgsubr
          -208 hlineto
          -215 -1212 rlineto
          -249 hlineto
          215 1212 rlineto
          -208 hlineto
          -215 -1212 241 callsubr
          216 1212 rlineto
          -208 80 callsubr
        </CharString>
        <CharString name="Shchacyrillic">
          1044 -285 rmoveto
          211 hlineto
          88 516 rlineto
          -157 hlineto
          215 1212 rlineto
          -208 hlineto
          -215 -1219 rlineto
          -242 234 callgsubr
          -216 -1219 rlineto
          -241 234 callgsubr
          -254 -1443 rlineto
          1053 hlineto
          endchar
        </CharString>
        <CharString name="Sigmagreek">
          133 hmoveto
          985 43 callsubr
          -620 hlineto
          3 17 375 431 6 34 -211 454 2 17 rlineto
          597 43 callsubr
          -945 hlineto
          -32 -197 243 -520 -452 -531 rlineto
          endchar
        </CharString>
        <CharString name="Softsigncyrillic">
          559 723 rmoveto
          223 hlineto
          130 76 -72 -125 -184 -108 -105 -189 hvcurveto
          -220 hlineto
          246 -237 rmoveto
          344 218 213 333 246 -163 164 -246 hvcurveto
          -272 hlineto
          87 487 rlineto
          -285 80 callsubr
        </CharString>
        <CharString name="T">
          775 hmoveto
          -67 callgsubr
          endchar
        </CharString>
        <CharString name="Taugreek">
          775 hmoveto
          -67 callgsubr
          endchar
        </CharString>
        <CharString name="Tbar">
          77 callgsubr
          -71 -399 192 callgsubr
          -35 -207 rlineto
          282 hlineto
          -105 -592 138 callsubr
          105 592 138 callsubr
          35 207 rlineto
          -282 hlineto
          71 399 rlineto
          endchar
        </CharString>
        <CharString name="Tcaron">
          775 hmoveto
          -67 callgsubr
          293 1594 -54 callgsubr
        </CharString>
        <CharString name="Tcedilla">
          602 -1 rmoveto
          -50 -112 186 callsubr
          -40 -57 8 9 -24 35 callsubr
          47 hhcurveto
          183 151 callgsubr
          80 -58 59 -94 16 hvcurveto
          51 114 -67 callgsubr
          endchar
        </CharString>
        <CharString name="Tcircumflexbelow">
          775 hmoveto
          -67 callgsubr
          -33 -160 rmoveto
          -330 -91 callsubr
          endchar
        </CharString>
        <CharString name="Tcommaaccent">
          775 hmoveto
          -67 callgsubr
          66 -504 19 callgsubr
        </CharString>
        <CharString name="Tdotaccent">
          775 hmoveto
          -67 callgsubr
          451 1597 -30 callsubr
          endchar
        </CharString>
        <CharString name="Tdotbelow">
          775 hmoveto
          -67 callgsubr
          83 149 callgsubr
          endchar
        </CharString>
        <CharString name="Tecyrillic">
          775 hmoveto
          -67 callgsubr
          endchar
        </CharString>
        <CharString name="Thetagreek">
          550 598 rmoveto
          377 hlineto
          40 240 rlineto
          -376 hlineto
          693 -295 rmoveto
          75 callsubr
          12 71 3 42 95 63 callgsubr
          -53 -4 -55 -107 vvcurveto
          -290 210 -206 295 324 207 198 374 66 vhcurveto
          -587 -320 rmoveto
          -166 -85 101 159 59 5 45 11 62 hvcurveto
          37 212 rlineto
          244 44 92 115 187 hhcurveto
          165 87 -102 -154 -54 -4 -50 -10 -58 hvcurveto
          -39 -215 rlineto
          -246 -43 -100 -118 -181 hhcurveto
          endchar
        </CharString>
        <CharString name="Thorn">
          423 1443 90 callsubr
          301 hlineto
          52 282 rlineto
          236 hlineto
          345 205 185 319 12 hvcurveto
          258 11 -174 164 -284 hhcurveto
          -191 hlineto
          42 235 rlineto
          -84 -485 rmoveto
          181 hlineto
          140 79 -69 -117 -8 hvcurveto
          -150 -8 -98 -86 -165 hhcurveto
          -197 hlineto
          endchar
        </CharString>
        <CharString name="Tlinebelow">
          775 hmoveto
          -67 callgsubr
          425 -416 -95 callsubr
          endchar
        </CharString>
        <CharString name="Tsecyrillic">
          1307 245 rmoveto
          -142 hlineto
          212 1198 192 callgsubr
          -213 143 callgsubr
          -461 hlineto
          212 197 callgsubr
          916 73 callsubr
          256 hlineto
          endchar
        </CharString>
        <CharString name="Tshecyrillic">
          551 hmoveto
          103 576 rlineto
          45 49 79 34 75 hhcurveto
          103 56 -60 -111 -30 -3 -33 -7 -36 hvcurveto
          -68 -385 rlineto
          271 hlineto
          75 423 rlineto
          10 55 4 52 47 vvcurveto
          211 -114 115 -209 -96 -102 -35 -60 -73 vhcurveto
          -12 hlineto
          72 390 rlineto
          323 43 callsubr
          -874 hlineto
          -41 -245 rlineto
          280 hlineto
          -213 143 callgsubr
          endchar
        </CharString>
        <CharString name="U">
          193 534 -32 callsubr
        </CharString>
        <CharString name="Uacute">
          193 534 -105 callsubr
          413 159 -43 callsubr
          endchar
        </CharString>
        <CharString name="Ubreve">
          193 534 -105 callsubr
          569 148 rmoveto
          222 94 callgsubr
          -105 -65 124 callgsubr
          -27 151 -146 221 hhcurveto
          endchar
        </CharString>
        <CharString name="Ucaron">
          193 534 -105 callsubr
          434 151 rmoveto
          256 hlineto
          339 70 callsubr
          -188 -37 callsubr
          -237 hlineto
          endchar
        </CharString>
        <CharString name="Ucircumflex">
          193 534 -105 callsubr
          765 493 0 callsubr
          17 hlineto
          118 -194 rlineto
          238 hlineto
          endchar
        </CharString>
        <CharString name="Ucircumflexbelow">
          193 534 -105 callsubr
          118 -1603 37 callgsubr
        </CharString>
        <CharString name="Ucyrillic">
          1488 1443 -76 callsubr
          endchar
        </CharString>
        <CharString name="Udblgrave">
          1069 166 callsubr
          -243 169 callgsubr
          202 -318 rlineto
          221 hlineto
          -637 -1068 -32 callsubr
        </CharString>
        <CharString name="Udieresis">
          193 534 -105 callsubr
          360 176 81 callsubr
          endchar
        </CharString>
        <CharString name="Udieresisacute">
          193 534 -105 callsubr
          454 480 rmoveto
          232 hlineto
          248 241 226 callgsubr
          -310 -602 rmoveto
          69 callsubr
          64 callgsubr
          455 hmoveto
          12 callgsubr
          endchar
        </CharString>
        <CharString name="Udieresisbelow">
          193 534 -105 callsubr
          3 -1908 rmoveto
          80 67 69 83 83 -67 69 -80 -72 callsubr
        </CharString>
        <CharString name="Udieresiscaron">
          193 534 -105 callsubr
          729 458 rmoveto
          325 296 241 callsubr
          -175 231 callsubr
          -240 hlineto
          224 -296 rlineto
          -126 -339 rmoveto
          12 callgsubr
          456 hmoveto
          -16 callsubr
          endchar
        </CharString>
        <CharString name="Udieresisgrave">
          705 1562 rmoveto
          69 callsubr
          64 callgsubr
          455 hmoveto
          78 65 66 82 82 -65 66 -78 64 callgsubr
          -214 602 rmoveto
          -269 hlineto
          164 -241 rlineto
          229 hlineto
          -877 -1389 -32 callsubr
        </CharString>
        <CharString name="Udieresismacron">
          193 534 -105 callsubr
          810 414 159 callsubr
          200 279 rmoveto
          182 callsubr
          731 hlineto
          -627 -112 159 callsubr
          endchar
        </CharString>
        <CharString name="Udotbelow">
          193 534 -105 callsubr
          234 -1919 -25 callgsubr
        </CharString>
        <CharString name="Ugrave">
          840 22 callgsubr
          -850 -1068 -32 callsubr
        </CharString>
        <CharString name="Uhookabove">
          193 534 -105 callsubr
          398 390 rmoveto
          12 27 48 8 45 89 callsubr
          67 -108 rlineto
          141 44 87 92 119 vvcurveto
          114 -91 76 -132 -52 -53 -9 -16 -46 vhcurveto
          endchar
        </CharString>
        <CharString name="Uhorn">
          681 -29 -12 callgsubr
        </CharString>
        <CharString name="Uhornacute">
          681 -29 rmoveto
          283 201 173 291 51 hvcurveto
          145 817 rlineto
          -82 callgsubr
          vhcurveto
          18 1631 rmoveto
          263 hlineto
          349 56 callsubr
          endchar
        </CharString>
        <CharString name="Uhorndotbelow">
          576 149 callgsubr
          105 447 -12 callgsubr
        </CharString>
        <CharString name="Uhorngrave">
          1361 1252 rmoveto
          -82 callgsubr
          283 201 173 291 51 vhcurveto
          -369 1485 rmoveto
          -288 133 callgsubr
          253 hlineto
          endchar
        </CharString>
        <CharString name="Uhornhookabove">
          754 1833 rmoveto
          12 27 48 8 44 hhcurveto
          65 34 24 callsubr
          -92 -2010 -12 callgsubr
        </CharString>
        <CharString name="Uhorntilde">
          681 -29 rmoveto
          283 201 173 291 51 hvcurveto
          145 817 rlineto
          -82 callgsubr
          vhcurveto
          110 1764 44 callgsubr
        </CharString>
        <CharString name="Uhungarumlaut">
          193 534 -105 callsubr
          653 159 108 callgsubr
        </CharString>
        <CharString name="Uinvertedbreve">
          193 534 -105 callsubr
          619 484 25 callgsubr
          26 -150 176 callgsubr
        </CharString>
        <CharString name="Umacron">
          193 534 -105 callsubr
          925 212 -95 callsubr
          endchar
        </CharString>
        <CharString name="Umacrondieresis">
          193 534 -105 callsubr
          395 445 rmoveto
          -16 callsubr
          -201 -279 50 callsubr
          627 111 rmoveto
          -16 callsubr
          endchar
        </CharString>
        <CharString name="Uogonek">
          850 -452 rmoveto
          55 44 6 13 33 hvcurveto
          28 158 rlineto
          -4 -9 -39 -3 -35 hhcurveto
          -72 -49 39 57 76 50 60 149 102 hvcurveto
          129 84 82 135 32 181 178 991 rcurveline
          -284 hlineto
          -168 -946 rlineto
          -172 -32 -99 -98 -138 hhcurveto
          -142 -94 92 141 24 4 32 6 29 hvcurveto
          159 898 192 callgsubr
          -161 -909 rlineto
          -7 -26 -2 -26 -45 vvcurveto
          -280 206 -186 302 7 vhcurveto
          18 19 3 6 13 hvcurveto
          -3 -17 rlineto
          -102 -56 -55 -76 -87 vvcurveto
          -118 112 -85 156 vhcurveto
          endchar
        </CharString>
        <CharString name="Upsilondieresisgreek">
          -85 callsubr
          208 1619 -84 callgsubr
          -36 callgsubr
          80 hvcurveto
          endchar
        </CharString>
        <CharString name="Upsilongreek">
          -85 callsubr
          endchar
        </CharString>
        <CharString name="Upsilontonosgreek">
          953 hmoveto
          96 534 484 909 rlineto
          -286 hlineto
          -272 -615 rlineto
          -16 hlineto
          -57 615 186 callgsubr
          164 -909 -95 -534 rlineto
          -503 1067 -20 callsubr
          endchar
        </CharString>
        <CharString name="Uring">
          193 534 -105 callsubr
          576 106 -4 callgsubr
        </CharString>
        <CharString name="Ushortcyrillic">
          1488 1443 -76 callsubr
          211 1544 rmoveto
          -109 -15 -70 -70 101 callsubr
          endchar
        </CharString>
        <CharString name="Utilde">
          193 534 -105 callsubr
          441 292 rmoveto
          88 33 -147 156 hhcurveto
          140 101 124 173 22 hvcurveto
          -173 hlineto
          -87 -13 -32 -42 -47 -83 -35 147 -160 hhcurveto
          -139 -100 -118 -184 -24 hvcurveto
          173 hlineto
          89 13 32 45 48 hhcurveto
          endchar
        </CharString>
        <CharString name="Utildeacute">
          193 534 -105 callsubr
          472 493 rmoveto
          227 hlineto
          161 239 142 callgsubr
          -173 -479 47 callsubr
        </CharString>
        <CharString name="Utildebelow">
          193 534 -105 callsubr
          93 -1763 -68 callsubr
        </CharString>
        <CharString name="V">
          20 callgsubr
          endchar
        </CharString>
        <CharString name="Vdotbelow">
          20 callgsubr
          -618 -1919 -92 callgsubr
          endchar
        </CharString>
        <CharString name="Vecyrillic">
          -91 callgsubr
          endchar
        </CharString>
        <CharString name="Vtilde">
          20 callgsubr
          -402 292 rmoveto
          -11 callgsubr
          -172 hlineto
          183 callsubr
          -83 -35 -26 callsubr
          hhcurveto
          endchar
        </CharString>
        <CharString name="W">
          794 850 -88 callsubr
          endchar
        </CharString>
        <CharString name="Wacute">
          794 850 -88 callsubr
          -16 752 -43 callsubr
          endchar
        </CharString>
        <CharString name="Wcircumflex">
          794 850 -88 callsubr
          336 1086 0 callsubr
          18 218 callsubr
        </CharString>
        <CharString name="Wdieresis">
          794 850 -88 callsubr
          -68 769 rmoveto
          79 68 69 83 83 -68 69 -79 -72 callsubr
        </CharString>
        <CharString name="Wdotaccent">
          794 850 -88 callsubr
          163 747 -30 callsubr
          endchar
        </CharString>
        <CharString name="Wdotbelow">
          794 850 -88 callsubr
          -201 -1326 -92 callgsubr
          endchar
        </CharString>
        <CharString name="Wgrave">
          827 120 callsubr
          -236 -752 -88 callsubr
          endchar
        </CharString>
        <CharString name="X">
          -58 callsubr
          endchar
        </CharString>
        <CharString name="Xacyrillic">
          -58 callsubr
          endchar
        </CharString>
        <CharString name="Xdieresis">
          -58 callsubr
          126 891 rmoveto
          79 68 69 83 83 -68 69 -79 -72 callsubr
        </CharString>
        <CharString name="Xdotaccent">
          -58 callsubr
          357 869 -30 callsubr
          endchar
        </CharString>
        <CharString name="Xigreek">
          144 hmoveto
          978 hlineto
          42 253 rlineto
          -977 hlineto
          148 345 rmoveto
          810 hlineto
          42 250 rlineto
          -810 hlineto
          -20 342 rmoveto
          977 hlineto
          42 253 rlineto
          -978 hlineto
          endchar
        </CharString>
        <CharString name="Y">
          -85 callsubr
          endchar
        </CharString>
        <CharString name="Yacute">
          -85 callsubr
          260 1602 -43 callsubr
          endchar
        </CharString>
        <CharString name="Ycircumflex">
          -85 callsubr
          613 1936 rmoveto
          -257 hlineto
          -338 25 callsubr
        </CharString>
        <CharString name="Ydieresis">
          -85 callsubr
          208 1619 -84 callgsubr
          -36 callgsubr
          80 hvcurveto
          endchar
        </CharString>
        <CharString name="Ydotaccent">
          -85 callsubr
          439 1597 -53 callsubr
          endchar
        </CharString>
        <CharString name="Ydotbelow">
          -85 callsubr
          82 149 callgsubr
          endchar
        </CharString>
        <CharString name="Yericyrillic">
          433 723 -61 callsubr
        </CharString>
        <CharString name="Ygrave">
          816 121 callgsubr
          -244 -1602 rmoveto
          95 534 627 909 rlineto
          -316 hlineto
          -404 -617 rlineto
          -16 hlineto
          -190 617 157 callgsubr
          313 -909 -95 -534 rlineto
          endchar
        </CharString>
        <CharString name="Yhookabove">
          -85 callsubr
          246 1833 rmoveto
          12 26 49 8 44 -14 callsubr
        </CharString>
        <CharString name="Yicyrillic">
          1074 hmoveto
          -100 callgsubr
          519 1619 rmoveto
          79 68 69 83 83 -68 69 -79 -72 callsubr
        </CharString>
        <CharString name="Ymacron">
          -85 callsubr
          779 78 callgsubr
          endchar
        </CharString>
        <CharString name="Ytilde">
          -85 callsubr
          289 1735 -57 callsubr
        </CharString>
        <CharString name="Z">
          -70 callgsubr
          endchar
        </CharString>
        <CharString name="Zacute">
          -70 callgsubr
          596 1405 66 callsubr
        </CharString>
        <CharString name="Zcaron">
          -70 callgsubr
          618 1397 111 callsubr
        </CharString>
        <CharString name="Zcircumflex">
          -70 callgsubr
          949 1739 rmoveto
          -256 hlineto
          -339 -21 callsubr
          238 hlineto
          endchar
        </CharString>
        <CharString name="Zdotaccent">
          -70 callgsubr
          775 1400 -53 callsubr
          endchar
        </CharString>
        <CharString name="Zdotbelow">
          -70 callgsubr
          412 -673 -92 callgsubr
          endchar
        </CharString>
        <CharString name="Zecyrillic">
          -67 callsubr
          endchar
        </CharString>
        <CharString name="Zetagreek">
          -70 callgsubr
          endchar
        </CharString>
        <CharString name="Zhecyrillic">
          -48 callsubr
          endchar
        </CharString>
        <CharString name="Zlinebelow">
          -70 callgsubr
          753 -613 -95 callsubr
          endchar
        </CharString>
        <CharString name="a">
          -107 callgsubr
          endchar
        </CharString>
        <CharString name="aacute">
          968 1296 rmoveto
          342 353 rlineto
          -306 -32 callgsubr
          197 -806 -89 callgsubr
        </CharString>
        <CharString name="abreve">
          -107 callgsubr
          251 1028 66 callgsubr
        </CharString>
        <CharString name="abreveacute">
          -107 callgsubr
          178 1447 rmoveto
          191 hlineto
          294 335 rlineto
          -237 hlineto
          -173 -725 183 callgsubr
          145 32 callsubr
          -116 -67 69 108 10 -10 callgsubr
          156 callsubr
          endchar
        </CharString>
        <CharString name="abrevedotbelow">
          -107 callgsubr
          251 1028 rmoveto
          177 callsubr
          144 210 126 callsubr
          -65 callsubr
          138 callgsubr
          -322 -1706 -92 callgsubr
          endchar
        </CharString>
        <CharString name="abrevegrave">
          1108 1614 rmoveto
          -65 callsubr
          156 callsubr
          165 callgsubr
          210 20 hvcurveto
          -431 370 rmoveto
          -233 209 callgsubr
          186 hlineto
          -110 -1159 -89 callgsubr
        </CharString>
        <CharString name="abrevehookabove">
          -107 callgsubr
          251 1057 rmoveto
          165 callgsubr
          210 126 callsubr
          -65 callsubr
          156 callsubr
          -167 595 82 callsubr
          -46 -49 187 callsubr
          113 vvcurveto
          122 -91 77 -142 -53 -47 -9 -18 -40 vhcurveto
          endchar
        </CharString>
        <CharString name="abrevetilde">
          -107 callgsubr
          251 1057 rmoveto
          165 callgsubr
          210 126 callsubr
          -65 callsubr
          156 callsubr
          -56 580 rmoveto
          83 -22 callsubr
          185 hlineto
          94 11 30 46 50 hhcurveto
          endchar
        </CharString>
        <CharString name="acaron">
          -107 callgsubr
          377 1094 rmoveto
          330 -40 callgsubr
        </CharString>
        <CharString name="acircumflex">
          -107 callgsubr
          151 1427 rmoveto
          -331 -91 callsubr
          endchar
        </CharString>
        <CharString name="acircumflexacute">
          -107 callgsubr
          514 1447 rmoveto
          223 hlineto
          294 335 rlineto
          -262 hlineto
          -617 -349 102 callsubr
        </CharString>
        <CharString name="acircumflexdotbelow">
          -107 callgsubr
          151 1427 rmoveto
          -331 -91 callsubr
          -509 -2105 -92 callgsubr
          endchar
        </CharString>
        <CharString name="acircumflexgrave">
          -107 callgsubr
          817 1447 rmoveto
          -139 335 rlineto
          -252 209 callgsubr
          -451 -14 102 callsubr
        </CharString>
        <CharString name="acircumflexhookabove">
          -107 callgsubr
          152 1433 110 callsubr
          8 218 -2 callgsubr
          78 193 callgsubr
          -9 -19 -40 vhcurveto
          endchar
        </CharString>
        <CharString name="acircumflextilde">
          -107 callgsubr
          196 1646 rmoveto
          84 -5 callsubr
          44 hhcurveto
          -44 -213 102 callsubr
        </CharString>
        <CharString name="acute">
          855 1296 175 callsubr
        </CharString>
        <CharString name="acutecmb">
          926 -63 callsubr
          endchar
        </CharString>
        <CharString name="acutecmb.short">
          749 1602 -43 callsubr
          endchar
        </CharString>
        <CharString name="acutedotaccentcmb">
          676 1297 -92 callgsubr
          455 -7 rmoveto
          341 354 rlineto
          -305 hlineto
          -303 173 callgsubr
        </CharString>
        <CharString name="acutedotaccentcmb.short">
          957 1602 -31 callsubr
          -508 -295 1 callsubr
        </CharString>
        <CharString name="acyrillic">
          -107 callgsubr
          endchar
        </CharString>
        <CharString name="adblgrave">
          1022 179 callgsubr
          -556 354 95 callsubr
          217 hlineto
          162 -806 -89 callgsubr
        </CharString>
        <CharString name="adieresis">
          -107 callgsubr
          31 1085 rmoveto
          33 callsubr
          -79 133 callsubr
          79 hvcurveto
          462 hmoveto
          -43 callgsubr
          endchar
        </CharString>
        <CharString name="adieresismacron">
          -107 callgsubr
          488 1373 rmoveto
          -79 208 callsubr
          79 96 callsubr
          -461 -9 callgsubr
        </CharString>
        <CharString name="adotaccent">
          -107 callgsubr
          262 1080 2 callgsubr
        </CharString>
        <CharString name="adotbelow">
          -107 callgsubr
          -71 -678 -92 callgsubr
          endchar
        </CharString>
        <CharString name="adotmacron">
          -107 callgsubr
          670 1520 -95 callsubr
          307 -463 -92 callgsubr
          endchar
        </CharString>
        <CharString name="ae">
          -83 callsubr
          endchar
        </CharString>
        <CharString name="aeacute">
          957 1296 rmoveto
          342 -65 callgsubr
          -85 -818 rmoveto
          -12 -68 rlineto
          -117 -17 -68 -80 -82 hhcurveto
          -62 -43 43 62 84 65 63 92 6 hvcurveto
          373 196 rmoveto
          1 7 6 27 1 8 rrcurveto
          124 27 61 75 75 hhcurveto
          70 43 -54 -92 -29 -3 -28 -5 -38 hvcurveto
          -42 -309 rmoveto
          -92 -21 -59 -55 -73 hhcurveto
          -77 -50 67 105 30 1 16 9 46 hvcurveto
          494 hlineto
          2 8 15 96 1 6 rrcurveto
          10 61 5 61 43 vvcurveto
          228 10 -113 153 -180 hhcurveto
          -106 -102 -61 -92 -52 hvcurveto
          -5 hlineto
          104 -36 -75 49 -121 hhcurveto
          -182 -144 -148 -213 -29 hvcurveto
          211 hlineto
          87 16 50 51 67 hhcurveto
          62 38 -41 -66 -24 -2 -17 -5 -30 hvcurveto
          -12 -65 -151 -10 rlineto
          -231 -14 -145 -148 -217 vvcurveto
          -167 114 -125 154 131 113 78 124 52 vhcurveto
          6 hlineto
          -127 28 91 -75 126 hhcurveto
          180 144 143 231 45 hvcurveto
          endchar
        </CharString>
        <CharString name="aemacron">
          -83 callsubr
          798 1142 -95 callsubr
          endchar
        </CharString>
        <CharString name="agrave">
          -107 callgsubr
          403 1094 189 callsubr
          endchar
        </CharString>
        <CharString name="ahookabove">
          -107 callgsubr
          79 1311 rmoveto
          16 36 35 7 40 hhcurveto
          62 40 -30 -45 -50 -39 136 callgsubr
          138 122 callsubr
          153 callsubr
          -40 vhcurveto
          endchar
        </CharString>
        <CharString name="ainvertedbreve">
          -107 callgsubr
          268 1412 rmoveto
          41 callsubr
          197 hlineto
          195 35 -159 160 -230 hhcurveto
          endchar
        </CharString>
        <CharString name="alphagreek">
          -51 callsubr
          endchar
        </CharString>
        <CharString name="alphatonosgreek">
          -51 callsubr
          -35 385 -20 callsubr
          endchar
        </CharString>
        <CharString name="amacron">
          -107 callgsubr
          606 1153 -95 callsubr
          endchar
        </CharString>
        <CharString name="ampersand">
          522 615 rmoveto
          38 21 228 -362 -77 -58 -83 -29 -83 2 rlinecurve
          -127 3 -81 80 9 116 6 92 59 79 111 56 rrcurveto
          421 -615 rmoveto
          293 hlineto
          -171 248 91 93 68 154 25 157 rlinecurve
          13 88 rlineto
          -220 hlineto
          -5 -39 -19 -116 -24 -65 -43 -49 rlinecurve
          -189 294 212 110 100 128 9 160 rlinecurve
          11 179 -129 126 -200 4 -219 4 -168 -149 -11 -207 -7 -96 35 -101 78 -115 -62 -32 rcurveline
          -197 -98 -109 -148 -8 -175 -13 -222 163 -155 251 -6 140 -3 140 43 108 80 rrcurveto
          -26 1047 rmoveto
          -7 -83 -59 -72 -127 -69 -61 84 -25 67 5 60 7 80 68 62 80 -2 77 -2 49 -53 -7 -72 rrcurveto
          endchar
        </CharString>
        <CharString name="anoteleia">
          776 741 rmoveto
          111 68 71 110 107 -68 74 -111 -113 -68 -74 -107 -110 68 -71 113 hvcurveto
          endchar
        </CharString>
        <CharString name="aogonek">
          633 202 rmoveto
          -98 -66 51 76 hvcurveto
          1 97 83 57 145 3 202 4 rcurveline
          -16 -80 rlineto
          -122 -22 -106 -86 -123 hhcurveto
          198 -189 rmoveto
          -149 -79 -51 -67 -112 vvcurveto
          -124 107 -90 148 50 37 6 13 32 vhcurveto
          28 157 rlineto
          -5 -21 -14 -2 -22 hhcurveto
          -73 -47 38 61 87 71 61 156 43 hvcurveto
          118 673 rlineto
          11 52 3 32 37 vvcurveto
          200 -165 130 -251 -247 -203 -138 -191 -35 vhcurveto
          268 hlineto
          68 27 76 43 89 hhcurveto
          104 67 -52 -80 -12 -1 -16 -3 -14 hvcurveto
          -11 -66 -249 -6 -317 -7 -170 -131 1 -233 rlinecurve
          -178 1 138 -128 193 hhcurveto
          132 117 62 100 52 hvcurveto
          25 hlineto
          endchar
        </CharString>
        <CharString name="approxequal">
          603 747 rmoveto
          37 27 -16 -68 80 hvcurveto
          -64 76 64 217 callgsubr
          -202 hlineto
          -98 -3 -35 -48 -67 hhcurveto
          -37 -27 15 67 -77 hvcurveto
          62 -74 -63 26 -74 hhcurveto
          -181 -102 -142 -257 228 callsubr
          98 6 34 50 62 hhcurveto
          -86 -493 rmoveto
          38 31 -19 -65 75 hvcurveto
          -64 75 65 217 callgsubr
          -203 hlineto
          -98 -2 -35 -48 -67 hhcurveto
          -37 -25 14 67 -80 hvcurveto
          63 -73 -63 27 -74 hhcurveto
          -180 -104 -143 -256 hvcurveto
          202 hlineto
          97 6 34 50 62 hhcurveto
          endchar
        </CharString>
        <CharString name="aring">
          -107 callgsubr
          269 1178 rmoveto
          -58 -44 45 57 57 44 -34 callgsubr
        </CharString>
        <CharString name="aringacute">
          1043 1746 rmoveto
          239 241 rlineto
          -235 hlineto
          -202 -241 rlineto
          50 -522 rmoveto
          127 95 93 126 127 -95 93 -127 -128 -95 -93 -127 -126 95 -93 128 hvcurveto
          126 vmoveto
          -55 -40 40 53 54 40 39 55 54 40 -39 -54 -53 -40 -40 -54 hvcurveto
          3 -860 -89 callgsubr
        </CharString>
        <CharString name="aringbelow">
          -107 callgsubr
          -76 -657 rmoveto
          -57 -45 45 57 56 45 46 57 58 44 -46 -56 -57 -44 -45 -58 hvcurveto
          -140 vmoveto
          131 107 109 133 133 -107 146 callgsubr
        </CharString>
        <CharString name="asciicircum">
          835 1125 rmoveto
          18 hlineto
          135 -511 rlineto
          277 hlineto
          -249 829 242 callgsubr
          -535 -829 226 callsubr
          endchar
        </CharString>
        <CharString name="asciitilde">
          549 962 rmoveto
          -188 -120 -152 -239 -1 hvcurveto
          -15 2 -18 1 -16 vhcurveto
          226 hlineto
          120 3 38 58 73 hhcurveto
          41 32 -20 -59 59 hvcurveto
          -94 94 71 -36 95 hhcurveto
          187 118 154 239 1 hvcurveto
          14 -1 18 -1 16 vhcurveto
          -224 hlineto
          -118 -4 -38 -60 -70 hhcurveto
          -41 -35 20 58 -58 hvcurveto
          96 -96 -69 34 -95 hhcurveto
          endchar
        </CharString>
        <CharString name="asterisk">
          1337 730 rmoveto
          -74 215 -399 -165 91 419 -214 40 -58 -430 -321 295 -139 -175 337 -260 -407 -129 74 -214 401 166 -92 -420 214 -40 58 429 320 -294 139 175 -337 260 rlineto
          endchar
        </CharString>
        <CharString name="at">
          669 -209 rmoveto
          82 92 12 16 39 hvcurveto
          25 149 rlineto
          -14 -53 -82 -10 -70 hhcurveto
          -252 -117 127 276 83 9 90 18 96 hvcurveto
          20 110 rlineto
          427 75 135 173 251 hhcurveto
          233 117 -118 -239 -67 -7 -71 -13 -80 hvcurveto
          -41 -225 rlineto
          -78 -14 -40 -33 -81 hhcurveto
          -130 hlineto
          73 421 rlineto
          2 12 2 14 10 vvcurveto
          74 -44 44 -72 -73 -54 -52 -84 -14 vhcurveto
          -73 -423 rlineto
          -2 -11 -2 -15 -11 vvcurveto
          -72 44 -46 70 vhcurveto
          275 hlineto
          179 74 65 199 36 hvcurveto
          43 236 rlineto
          13 74 7 73 72 vvcurveto
          318 -171 167 -321 -341 -208 -241 -505 -87 vhcurveto
          -25 -128 rlineto
          -18 -114 -9 -91 -73 vvcurveto
          -359 166 -178 334 vhcurveto
          endchar
        </CharString>
        <CharString name="atilde">
          -107 callgsubr
          116 1211 6 callsubr
          149 -163 hhcurveto
          -146 -104 -12 callsubr
        </CharString>
        <CharString name="austral">
          834 210 callgsubr
          31 -361 rlineto
          -206 hlineto
          229 -291 rmoveto
          -356 hlineto
          73 165 rlineto
          269 hlineto
          54 -673 rmoveto
          296 hlineto
          -47 357 rlineto
          99 hlineto
          26 151 rlineto
          -142 hlineto
          -21 153 rlineto
          190 hlineto
          26 150 rlineto
          -233 hlineto
          -80 632 rlineto
          -336 hlineto
          -302 -632 rlineto
          -233 hlineto
          -26 -150 rlineto
          191 hlineto
          -76 -153 rlineto
          -142 hlineto
          -26 -151 rlineto
          98 hlineto
          -174 -357 226 callsubr
          161 357 rlineto
          427 hlineto
          endchar
        </CharString>
        <CharString name="b">
          -80 callgsubr
          endchar
        </CharString>
        <CharString name="backslash">
          1073 -220 rmoveto
          -351 1883 226 callgsubr
          357 -1883 rlineto
          endchar
        </CharString>
        <CharString name="baht">
          870 1216 rmoveto
          85 -20 46 -56 -85 vvcurveto
          -1 -105 -78 -78 -116 -19 rrcurveto
          -38 -216 rmoveto
          123 -16 66 -63 -104 vvcurveto
          -138 -101 -86 -161 -7 vhcurveto
          -258 hmoveto
          76 418 rlineto
          129 hlineto
          -74 -418 rlineto
          49 1001 rmoveto
          128 hlineto
          -67 -375 rlineto
          -130 hlineto
          388 739 rmoveto
          -127 hlineto
          -26 -145 rlineto
          -408 -98 callsubr
          408 hlineto
          -25 -139 rlineto
          127 hlineto
          25 139 rlineto
          78 hlineto
          306 208 168 246 1 hvcurveto
          166 -111 132 -165 28 vhcurveto
          3 16 rlineto
          195 35 125 136 178 vvcurveto
          1 195 -144 124 -243 17 rrcurveto
          endchar
        </CharString>
        <CharString name="bar">
          684 -483 rmoveto
          376 2146 rlineto
          -272 hlineto
          -376 -2146 rlineto
          endchar
        </CharString>
        <CharString name="bdotaccent">
          -80 callgsubr
          339 1062 2 callgsubr
        </CharString>
        <CharString name="bdotbelow">
          -80 callgsubr
          -140 -696 -92 callgsubr
          endchar
        </CharString>
        <CharString name="becyrillic">
          706 204 rmoveto
          -139 -88 98 154 44 3 35 10 40 hvcurveto
          172 37 101 108 131 hhcurveto
          146 78 -89 -151 -50 -2 -26 -9 -43 hvcurveto
          -187 -35 -98 -105 -135 hhcurveto
          -233 652 rmoveto
          83 279 130 111 250 4 227 3 113 12 59 27 39 235 rcurveline
          -75 -29 -138 -18 -212 -7 -408 -12 -209 -220 -100 -520 rrcurveto
          -16 -76 -8 -73 -68 vvcurveto
          -329 183 -198 302 301 202 183 332 58 vhcurveto
          10 50 4 34 51 vvcurveto
          264 -159 173 -261 -162 -130 -75 -133 -70 vhcurveto
          endchar
        </CharString>
        <CharString name="betagreek">
          91 -367 rmoveto
          260 hlineto
          101 573 rlineto
          16 hlineto
          -142 25 130 -81 171 hhcurveto
          273 181 214 275 171 -87 136 -158 41 hvcurveto
          2 16 rlineto
          165 51 99 122 185 vvcurveto
          209 -171 144 -243 -293 -162 -144 -316 -55 vhcurveto
          379 -874 rmoveto
          -132 -100 93 131 43 4 27 8 44 hvcurveto
          93 533 rlineto
          161 30 79 78 129 hhcurveto
          123 63 -69 -99 -152 -100 -74 -152 hvcurveto
          -74 hlineto
          -37 -225 rlineto
          61 hlineto
          163 98 -84 -143 -151 -95 -113 -161 hvcurveto
          endchar
        </CharString>
        <CharString name="bitcoin">
          967 766 rmoveto
          209 27 126 137 208 vvcurveto
          150 -106 101 -179 20 vhcurveto
          39 208 rlineto
          -141 hlineto
          -38 -203 rlineto
          -159 hlineto
          38 203 rlineto
          -141 hlineto
          -38 -203 rlineto
          -191 hlineto
          -263 -1391 rlineto
          191 hlineto
          -38 -202 rlineto
          140 hlineto
          38 202 rlineto
          160 hlineto
          -38 -202 rlineto
          141 hlineto
          38 202 rlineto
          284 12 202 187 244 vvcurveto
          154 -116 115 -161 13 vhcurveto
          -352 451 rmoveto
          208 hlineto
          130 66 -51 -91 -129 -106 -88 -160 hvcurveto
          -211 hlineto
          -115 -602 rmoveto
          81 406 rlineto
          227 hlineto
          150 77 -57 -105 -140 -119 -104 -167 hvcurveto
          endchar
        </CharString>
        <CharString name="blinebelow">
          -80 callgsubr
          201 -636 -95 callsubr
          endchar
        </CharString>
        <CharString name="braceleft">
          1004 -220 rmoveto
          37 222 rlineto
          -95 hlineto
          -108 -37 28 81 26 4 33 7 40 hvcurveto
          46 258 rlineto
          3 14 1 19 32 vvcurveto
          108 -94 76 -144 12 vhcurveto
          4 18 184 10 110 79 24 134 rlinecurve
          49 279 rlineto
          160 29 28 28 146 hhcurveto
          96 hlineto
          37 224 rlineto
          -161 hlineto
          -293 -104 -87 -275 -48 hvcurveto
          -39 -221 rlineto
          -155 -27 -75 -45 -225 hhcurveto
          -47 -278 rlineto
          177 79 -52 -115 -21 -2 -23 -4 -22 hvcurveto
          -35 -200 rlineto
          -9 -54 -5 -43 -36 vvcurveto
          -181 96 -73 235 vhcurveto
          endchar
        </CharString>
        <CharString name="braceright">
          513 1661 rmoveto
          -37 -222 rlineto
          96 hlineto
          107 37 -28 -82 -26 -4 -32 -7 -41 hvcurveto
          -46 -257 rlineto
          -3 -14 -1 -19 -32 vvcurveto
          -108 94 -77 144 -11 vhcurveto
          -4 -19 -184 -10 -110 -79 -24 -133 rlinecurve
          -49 -279 rlineto
          -161 -29 -28 -28 -146 hhcurveto
          -96 hlineto
          -37 -223 rlineto
          161 hlineto
          293 104 86 275 48 hvcurveto
          39 221 rlineto
          155 27 75 45 225 hhcurveto
          47 279 rlineto
          -176 -80 51 115 22 2 22 4 23 hvcurveto
          35 199 rlineto
          9 54 5 43 36 vvcurveto
          181 -95 74 -236 vhcurveto
          endchar
        </CharString>
        <CharString name="bracketleft">
          622 1663 rmoveto
          -328 -1883 rlineto
          634 hlineto
          37 220 rlineto
          -362 -50 callsubr
          355 hlineto
          37 220 rlineto
          endchar
        </CharString>
        <CharString name="bracketright">
          600 1663 rmoveto
          -38 -220 rlineto
          355 -98 callsubr
          -362 107 callgsubr
          634 hlineto
          328 1883 rlineto
          endchar
        </CharString>
        <CharString name="breve">
          53 callgsubr
        </CharString>
        <CharString name="breveacutecmb">
          801 185 callgsubr
          190 hlineto
          295 335 rlineto
          -238 hlineto
          -172 -725 rmoveto
          165 callgsubr
          210 126 callsubr
          -65 callsubr
          156 callsubr
          endchar
        </CharString>
        <CharString name="breveacutecmb.short">
          832 1914 rmoveto
          209 hlineto
          249 250 241 callsubr
          -110 -584 rmoveto
          234 callsubr
          -201 hlineto
          15 callgsubr
          endchar
        </CharString>
        <CharString name="brevebelowcmb">
          582 -474 183 callgsubr
          144 210 19 hvcurveto
          -201 hlineto
          -107 -11 224 callsubr
          -116 -67 69 108 10 -10 callgsubr
          238 callgsubr
        </CharString>
        <CharString name="brevecmb">
          53 callgsubr
        </CharString>
        <CharString name="brevecmb.short">
          923 1591 rmoveto
          221 172 134 202 36 hvcurveto
          -201 hlineto
          -105 -21 -86 -67 -108 141 callgsubr
        </CharString>
        <CharString name="brevecyrillic">
          881 1260 -6 callsubr
          155 -158 224 hhcurveto
          endchar
        </CharString>
        <CharString name="brevecyrillic.short">
          921 1604 rmoveto
          224 -33 callsubr
          -205 hlineto
          -109 -15 -70 -70 139 callsubr
          endchar
        </CharString>
        <CharString name="brevegravecmb">
          1101 1614 rmoveto
          -65 callsubr
          156 callsubr
          165 callgsubr
          210 20 hvcurveto
          -432 370 rmoveto
          -232 209 callgsubr
          186 hlineto
          endchar
        </CharString>
        <CharString name="brevegravecmb.short">
          1070 205 callgsubr
          162 -250 rlineto
          57 -334 rmoveto
          234 callsubr
          -201 hlineto
          15 callgsubr
          endchar
        </CharString>
        <CharString name="brevehookabovecmb">
          877 1259 rmoveto
          165 callgsubr
          210 126 callsubr
          -65 callsubr
          156 callsubr
          -167 595 rmoveto
          16 35 35 7 41 hhcurveto
          61 40 -30 -46 -49 187 callsubr
          113 vvcurveto
          122 -92 224 callgsubr
          -9 -18 -39 vhcurveto
          endchar
        </CharString>
        <CharString name="brevehookabovecmb.short">
          777 2050 rmoveto
          10 26 45 6 38 hhcurveto
          55 29 -20 -39 -40 -38 -38 -65 -23 hvcurveto
          67 -93 rlineto
          205 callsubr
          -48 -48 -8 -14 -44 vhcurveto
          130 -598 rmoveto
          236 callgsubr
          -189 hlineto
          -88 -13 -80 -56 -111 hhcurveto
          -107 158 callgsubr
          endchar
        </CharString>
        <CharString name="brevetildecmb">
          877 1259 rmoveto
          165 callgsubr
          210 126 callsubr
          -65 callsubr
          156 callsubr
          -57 580 -27 callsubr
          184 hlineto
          94 11 31 46 49 hhcurveto
          endchar
        </CharString>
        <CharString name="brevetildecmb.short">
          928 1580 rmoveto
          206 163 114 163 31 hvcurveto
          -191 hlineto
          -80 -18 -79 -52 -103 hhcurveto
          -101 -68 51 81 -8 hvcurveto
          -184 hlineto
          -172 134 -105 218 vhcurveto
          -77 449 rmoveto
          178 callsubr
          -168 hlineto
          129 callsubr
          3 39 39 51 hhcurveto
          endchar
        </CharString>
        <CharString name="brokenbar">
          907 782 rmoveto
          153 881 rlineto
          -272 hlineto
          -153 -881 rlineto
          49 -1266 rmoveto
          153 882 rlineto
          -272 hlineto
          -153 -882 rlineto
          endchar
        </CharString>
        <CharString name="bullet">
          747 192 rmoveto
          246 200 202 248 248 -200 202 -246 -246 -201 -202 -248 -248 201 -202 246 hvcurveto
          endchar
        </CharString>
        <CharString name="c">
          1261 710 -90 callsubr
          endchar
        </CharString>
        <CharString name="cacute">
          1261 710 -90 callsubr
          -33 586 175 callsubr
        </CharString>
        <CharString name="caron">
          1004 1296 rmoveto
          330 -40 callgsubr
        </CharString>
        <CharString name="caroncmb">
          1003 1296 rmoveto
          330 -40 callgsubr
        </CharString>
        <CharString name="caroncmb.short">
          788 1594 rmoveto
          256 hlineto
          -16 callgsubr
          endchar
        </CharString>
        <CharString name="carondotaccentcmb">
          1006 1270 rmoveto
          331 357 -11 callsubr
          -18 hlineto
          -108 116 callsubr
          -357 rlineto
          233 421 -92 callgsubr
          endchar
        </CharString>
        <CharString name="carondotaccentcmb.short">
          967 1909 rmoveto
          88 63 62 83 83 -63 61 -88 -87 -63 -61 -83 -83 63 -62 87 hvcurveto
          71 -329 rmoveto
          321 266 109 callsubr
          -174 -146 rlineto
          -18 hlineto
          -123 199 callsubr
        </CharString>
        <CharString name="ccaron">
          1003 1296 111 callgsubr
          545 -586 -90 callsubr
          endchar
        </CharString>
        <CharString name="ccedilla">
          1261 710 rmoveto
          1 19 1 20 15 vvcurveto
          216 -186 150 -270 -281 -205 -167 -267 -48 vhcurveto
          -5 -21 -19 -111 -2 -12 rrcurveto
          -9 -54 -5 -57 -51 vvcurveto
          -211 126 -148 206 -42 vhcurveto
          -62 -106 -56 callsubr
          vlineto
          endchar
        </CharString>
        <CharString name="ccedillaacute">
          1305 185 callgsubr
          -54 callsubr
          266 hlineto
          -460 -1413 rmoveto
          -56 callsubr
          267 vlineto
          1 19 1 20 15 vvcurveto
          216 -186 150 -270 -281 -205 -167 -267 -48 vhcurveto
          -5 -21 -19 -111 -2 -12 rrcurveto
          -9 -54 -5 -57 -51 vvcurveto
          -211 126 -148 206 -42 vhcurveto
          endchar
        </CharString>
        <CharString name="ccircumflex">
          777 204 callsubr
          180 7 callgsubr
          197 -919 -90 callsubr
          endchar
        </CharString>
        <CharString name="cdotaccent">
          888 1282 21 callgsubr
          373 -572 -90 callsubr
          endchar
        </CharString>
        <CharString name="cedi">
          547 895 rmoveto
          33 177 86 110 125 27 -170 -959 rcurveline
          -86 36 -50 83 115 vvcurveto
          38 5 47 8 40 vhcurveto
          870 318 rmoveto
          4 34 2 23 19 vvcurveto
          239 -156 176 -236 44 vhcurveto
          22 126 rlineto
          -146 hlineto
          -21 -116 -317 -11 -205 -194 -61 -351 rlinecurve
          46 callsubr
          -260 148 -187 234 -54 vhcurveto
          -26 -145 rlineto
          146 hlineto
          23 129 rlineto
          1 hlineto
          308 216 179 301 47 hvcurveto
          3 11 2 18 16 vvcurveto
          -289 hlineto
          -1 -5 0 -3 -1 -8 -30 -154 -83 -82 -127 -12 172 972 rcurveline
          91 -28 57 -76 -104 vvcurveto
          -28 -1 -18 -2 -22 vhcurveto
          endchar
        </CharString>
        <CharString name="cedilla">
          478 233 callsubr
          -42 -23 -71 -41 -57 -51 callgsubr
          -105 12 hvcurveto
          66 114 rlineto
          -167 hlineto
          -68 -117 rlineto
          endchar
        </CharString>
        <CharString name="cedillacmb">
          469 -234 rmoveto
          57 95 callgsubr
          -23 hvcurveto
          -24 35 callgsubr
          66 114 rlineto
          -167 hlineto
          -69 -117 rlineto
          endchar
        </CharString>
        <CharString name="cent">
          1225 511 rmoveto
          -268 hlineto
          -91 -24 -73 -49 -105 hhcurveto
          -126 -72 74 130 28 5 47 7 37 hvcurveto
          19 103 rlineto
          145 27 89 84 127 hhcurveto
          116 69 -64 -105 hvcurveto
          266 hlineto
          18 206 -102 142 -201 53 35 199 rcurveline
          -239 hlineto
          -32 -184 -234 -30 -162 -154 -44 -235 rlinecurve
          -26 -135 rlineto
          -9 -59 -5 -64 -52 vvcurveto
          -190 105 -143 179 -54 vhcurveto
          -37 -208 192 callsubr
          33 188 226 27 161 143 37 211 rlinecurve
          endchar
        </CharString>
        <CharString name="checyrillic">
          1293 1103 -64 callgsubr
          -78 -442 rlineto
          275 hlineto
          endchar
        </CharString>
        <CharString name="chigreek">
          24 -365 rmoveto
          275 hlineto
          354 480 rlineto
          16 hlineto
          105 -311 rlineto
          -123 41 69 -56 133 hhcurveto
          59 49 12 8 22 hvcurveto
          35 202 rlineto
          -3 -17 -15 -2 -18 hhcurveto
          -73 -36 27 89 -32 hvcurveto
          -146 409 550 736 rlineto
          -277 hlineto
          -348 -475 rlineto
          -17 hlineto
          -105 297 rlineto
          137 -49 -56 57 -142 hhcurveto
          -40 -47 -8 -11 -32 hvcurveto
          -36 -204 rlineto
          4 21 13 1 12 hhcurveto
          69 37 -35 -93 33 hvcurveto
          144 -403 rlineto
          endchar
        </CharString>
        <CharString name="circumflex">
          777 1629 rmoveto
          -331 -91 callsubr
          endchar
        </CharString>
        <CharString name="circumflexacutecmb">
          1139 185 callgsubr
          224 hlineto
          294 335 rlineto
          -262 hlineto
          -617 -349 -36 callsubr
          endchar
        </CharString>
        <CharString name="circumflexacutecmb.short">
          1192 1877 rmoveto
          229 hlineto
          260 287 109 callsubr
          -337 -324 240 callsubr
          -41 callgsubr
          endchar
        </CharString>
        <CharString name="circumflexbelowcmb">
          462 -160 rmoveto
          -331 -91 callsubr
          endchar
        </CharString>
        <CharString name="circumflexcmb">
          777 1629 rmoveto
          -331 -91 callsubr
          endchar
        </CharString>
        <CharString name="circumflexcmb.short">
          1101 1936 0 callsubr
          17 hlineto
          118 -194 rlineto
          238 hlineto
          endchar
        </CharString>
        <CharString name="circumflexgravecmb">
          1443 185 callgsubr
          -139 335 rlineto
          -253 209 callgsubr
          -450 -14 -36 callsubr
          endchar
        </CharString>
        <CharString name="circumflexgravecmb.short">
          1472 168 callgsubr
          -160 -37 118 callsubr
          endchar
        </CharString>
        <CharString name="circumflexhookabovecmb">
          778 1635 -36 callsubr
          8 218 82 callsubr
          -45 -50 187 callsubr
          114 vvcurveto
          121 -91 78 -142 -53 -47 -9 -19 -40 vhcurveto
          endchar
        </CharString>
        <CharString name="circumflexhookabovecmb.short">
          1092 1840 118 callsubr
          -186 448 4 callgsubr
          -85 70 -119 -47 -47 -8 -14 -45 vhcurveto
          endchar
        </CharString>
        <CharString name="circumflextildecmb">
          822 1848 rmoveto
          84 -5 callsubr
          44 hhcurveto
          -44 -213 -36 callsubr
          endchar
        </CharString>
        <CharString name="circumflextildecmb.short">
          1090 1840 240 callsubr
          -41 callgsubr
          -460 453 rmoveto
          90 21 42 callsubr
          -170 hlineto
          -64 -11 112 callgsubr
        </CharString>
        <CharString name="colon">
          669 -19 rmoveto
          121 99 102 123 125 -99 101 -121 -120 -100 -101 -125 -123 100 -102 120 hvcurveto
          134 757 rmoveto
          121 99 102 124 124 -99 101 -121 -121 -99 -101 -124 -124 99 -102 121 hvcurveto
          endchar
        </CharString>
        <CharString name="coloncurrency">
          729 -153 rmoveto
          66 137 rlineto
          -8 34 39 -4 43 hhcurveto
          77 94 8 13 75 hvcurveto
          43 250 rlineto
          -12 -51 -80 -8 -75 hhcurveto
          -35 -32 2 6 -27 hvcurveto
          634 1357 rlineto
          -147 hlineto
          -65 -137 -47 10 -59 7 -59 2 rlinecurve
          1 27 37 81 30 hvcurveto
          -147 hlineto
          -57 -122 -466 -37 -294 -269 -47 -440 rlinecurve
          -33 -259 72 -219 155 -116 -135 -279 rcurveline
          148 hlineto
          104 213 43 -23 47 -20 51 -14 rlinecurve
          -75 -156 rlineto
          -56 575 rmoveto
          -35 78 -13 114 12 112 21 239 148 165 236 61 rrcurveto
          -133 -945 rmoveto
          -56 14 -51 24 -30 30 428 906 rcurveline
          72 3 45 -4 50 -7 rrcurveto
          endchar
        </CharString>
        <CharString name="comma">
          565 -335 rmoveto
          321 754 rlineto
          -322 hlineto
          -265 -754 rlineto
          endchar
        </CharString>
        <CharString name="commaaccent">
          616 -494 rmoveto
          204 33 callgsubr
        </CharString>
        <CharString name="commabelowcmb">
          560 -510 rmoveto
          205 355 186 callgsubr
          -172 -355 rlineto
          endchar
        </CharString>
        <CharString name="copyright">
          760 183 198 callgsubr
          236 -298 -298 -231 -236 130 callgsubr
          193 237 237 187 -193 214 callsubr
          264 509 rmoveto
          129 5 -93 86 -141 hhcurveto
          -180 -114 -132 -212 -138 94 -85 151 125 95 73 121 29 hvcurveto
          -143 hlineto
          -45 -16 -37 -24 -48 hhcurveto
          -69 -35 38 76 121 56 83 81 59 33 -32 -59 5 hvcurveto
          endchar
        </CharString>
        <CharString name="cruzeiro">
          1199 233 rmoveto
          -10 -46 -58 -5 -51 hhcurveto
          -40 -30 1 4 -26 hvcurveto
          44 235 rlineto
          148 27 91 92 118 hhcurveto
          36 51 -10 -11 21 hvcurveto
          184 callsubr
          11 -20 -32 6 -35 hhcurveto
          -110 -85 -64 -118 -44 hvcurveto
          -14 hlineto
          29 166 rlineto
          -218 hlineto
          -113 -632 rlineto
          -165 59 -83 125 185 vvcurveto
          350 229 237 336 108 116 -16 -25 65 vhcurveto
          44 242 rlineto
          32 -71 -115 18 -132 hhcurveto
          -537 -330 -323 -532 -409 304 -234 458 78 66 4 9 56 hvcurveto
          endchar
        </CharString>
        <CharString name="currency">
          1324 914 rmoveto
          -132 206 -169 -128 -57 51 -71 33 -79 14 rlinecurve
          -76 13 -78 -7 -73 -28 -113 177 rcurveline
          -193 -146 115 -169 -51 -57 -33 -69 -14 -83 rlinecurve
          -15 -84 7 -76 28 -72 -166 -120 rcurveline
          133 -205 169 127 58 -50 70 -34 77 -13 rlinecurve
          79 -14 78 7 71 28 115 -177 rcurveline
          191 146 -115 168 53 58 33 69 15 83 rlinecurve
          14 84 -7 76 -29 71 rrcurveto
          -459 -373 rmoveto
          -127 22 -76 113 22 125 23 124 112 81 126 -21 125 -22 77 -114 -22 -124 -23 -125 -112 -81 -125 22 rrcurveto
          endchar
        </CharString>
        <CharString name="d">
          -97 callgsubr
          endchar
        </CharString>
        <CharString name="dagger">
          871 737 rmoveto
          373 -3 37 226 -373 -2 77 396 rlineto
          -226 hlineto
          -65 -396 -373 2 -37 -226 373 3 -167 -907 rlineto
          226 hlineto
          endchar
        </CharString>
        <CharString name="daggerdbl">
          1153 224 rmoveto
          38 225 -371 -3 53 291 371 -3 37 226 -370 -2 74 396 rlineto
          -226 hlineto
          -68 -396 -370 2 -37 -226 371 3 -53 -291 -371 3 -38 -225 370 2 -73 -396 rlineto
          226 hlineto
          68 396 rlineto
          endchar
        </CharString>
        <CharString name="dblgrave">
          1097 0 callgsubr
          endchar
        </CharString>
        <CharString name="dblgravecmb">
          1015 179 callgsubr
          -557 354 181 callsubr
          217 hlineto
          endchar
        </CharString>
        <CharString name="dblgravecmb.short">
          1070 166 callsubr
          -244 hlineto
          202 -318 rlineto
          221 hlineto
          -598 318 rmoveto
          -244 hlineto
          203 -318 rlineto
          220 hlineto
          endchar
        </CharString>
        <CharString name="dcaron">
          1324 1523 rmoveto
          -86 -491 rlineto
          176 hlineto
          120 491 rlineto
          -961 -402 rmoveto
          -202 -146 -160 -261 -44 hvcurveto
          -42 -256 rlineto
          -7 -38 -5 -41 -59 vvcurveto
          -193 123 -130 190 128 85 72 120 47 vhcurveto
          18 hlineto
          -31 -175 rlineto
          244 hlineto
          268 1523 rlineto
          -247 hlineto
          -107 -603 rlineto
          -15 hlineto
          118 -20 -87 83 -150 hhcurveto
          49 -231 rmoveto
          112 71 -80 -95 -29 -2 -22 -4 -24 hvcurveto
          -36 -211 rlineto
          -138 -25 -81 -69 -114 hhcurveto
          -109 -63 75 106 27 1 25 4 21 hvcurveto
          36 209 rlineto
          141 26 74 64 110 hhcurveto
          endchar
        </CharString>
        <CharString name="dcircumflexbelow">
          -97 callgsubr
          -285 -1050 rmoveto
          -331 -91 callsubr
          endchar
        </CharString>
        <CharString name="dcommaaccent">
          -97 callgsubr
          -156 -1400 rmoveto
          205 355 186 callgsubr
          -171 -355 rlineto
          endchar
        </CharString>
        <CharString name="dcroat">
          918 449 rmoveto
          -140 -26 -95 -87 -132 hhcurveto
          -118 -82 80 115 29 3 30 4 25 hvcurveto
          29 163 rlineto
          144 26 87 82 128 hhcurveto
          122 90 -85 227 callgsubr
          -21 -4 -28 hvcurveto
          556 782 rmoveto
          -141 hlineto
          22 123 rlineto
          -283 hlineto
          -22 -123 rlineto
          -155 hlineto
          -25 -144 rlineto
          155 hlineto
          -64 -360 rlineto
          -16 hlineto
          136 -22 -129 89 -163 hhcurveto
          -231 -169 -173 -284 -43 hvcurveto
          -28 -180 rlineto
          -7 -40 -4 -47 -47 vvcurveto
          -223 141 -144 218 144 123 84 132 48 vhcurveto
          17 hlineto
          -35 -199 rlineto
          282 hlineto
          221 1256 rlineto
          141 hlineto
          endchar
        </CharString>
        <CharString name="ddotaccent">
          -97 callgsubr
          -45 392 2 callgsubr
        </CharString>
        <CharString name="ddotbelow">
          -97 callgsubr
          -169 -1366 -92 callgsubr
          endchar
        </CharString>
        <CharString name="decyrillic">
          -1 callgsubr
        </CharString>
        <CharString name="degree">
          836 799 rmoveto
          202 151 153 204 204 -151 153 -202 -202 -150 -153 -204 -204 150 -153 202 hvcurveto
          175 vmoveto
          -103 -74 76 106 106 74 76 103 104 74 -76 -106 -106 -74 -76 -104 hvcurveto
          endchar
        </CharString>
        <CharString name="deltagreek">
          1249 600 rmoveto
          207 -94 116 -222 142 vhcurveto
          -89 53 -58 37 70 vvcurveto
          72 49 36 108 104 117 -32 -58 111 vhcurveto
          36 215 rlineto
          55 -106 -149 34 -140 hhcurveto
          -245 -168 -99 -190 -95 45 -92 125 -70 hvcurveto
          -4 -17 -243 -21 -158 -142 -49 -219 rlinecurve
          -21 -93 -5 -44 -44 vvcurveto
          -269 186 -175 281 297 191 152 291 74 vhcurveto
          19 69 8 52 59 vvcurveto
          -482 225 rmoveto
          129 86 -81 -146 -25 -3 -25 -4 -26 hvcurveto
          -2 -9 -10 -57 -4 -9 rrcurveto
          -150 -37 -106 -97 -136 hhcurveto
          -131 -89 92 134 24 2 24 4 25 hvcurveto
          2 9 9 56 3 8 rrcurveto
          155 34 104 98 149 hhcurveto
          endchar
        </CharString>
        <CharString name="dieresis">
          658 1299 rmoveto
          80 67 69 83 83 -67 69 -80 -72 callsubr
        </CharString>
        <CharString name="dieresisacutecmb">
          775 185 callgsubr
          231 hlineto
          314 335 rlineto
          -268 hlineto
          -399 -713 110 callgsubr
          -66 callgsubr
          hvcurveto
          endchar
        </CharString>
        <CharString name="dieresisacutecmb.short">
          807 1923 rmoveto
          233 hlineto
          247 241 rlineto
          -273 hlineto
          -311 -602 rmoveto
          12 callgsubr
          456 hmoveto
          -16 callsubr
          endchar
        </CharString>
        <CharString name="dieresisbelowcmb">
          346 -465 -84 callgsubr
          -67 -69 -83 -83 67 -69 80 hvcurveto
          endchar
        </CharString>
        <CharString name="dieresiscaroncmb">
          1049 185 callgsubr
          330 341 rlineto
          -241 hlineto
          -191 -210 rlineto
          -17 hlineto
          -117 210 rlineto
          -228 hlineto
          210 -341 rlineto
          -142 -378 110 callgsubr
          -66 callgsubr
          hvcurveto
          endchar
        </CharString>
        <CharString name="dieresiscaroncmb.short">
          1082 1901 rmoveto
          325 296 rlineto
          -249 hlineto
          -176 231 callsubr
          -239 hlineto
          224 -296 rlineto
          -126 -339 rmoveto
          -16 callsubr
          455 hmoveto
          69 callsubr
          -78 -65 -66 -82 -82 65 -66 78 hvcurveto
          endchar
        </CharString>
        <CharString name="dieresiscmb">
          657 93 callgsubr
          -67 -68 -84 -83 67 -68 80 hvcurveto
          endchar
        </CharString>
        <CharString name="dieresiscmb.short">
          714 1619 -84 callgsubr
          -36 callgsubr
          80 hvcurveto
          endchar
        </CharString>
        <CharString name="dieresisgravecmb">
          654 1271 -84 callgsubr
          -36 callgsubr
          80 hvcurveto
          -400 713 rmoveto
          -268 hlineto
          314 -335 rlineto
          231 hlineto
          endchar
        </CharString>
        <CharString name="dieresisgravecmb.short">
          705 1562 rmoveto
          12 callgsubr
          456 hmoveto
          -16 callsubr
          -214 602 rmoveto
          -269 hlineto
          163 -241 rlineto
          229 hlineto
          endchar
        </CharString>
        <CharString name="dieresismacroncmb">
          1114 1575 rmoveto
          27 callsubr
          -461 hmoveto
          34 callgsubr
          79 147 callsubr
          -79 hvcurveto
          -50 331 19 callsubr
        </CharString>
        <CharString name="dieresismacroncmb.short">
          1162 1857 55 callgsubr
          201 279 rmoveto
          182 callsubr
          730 hlineto
          -627 -112 55 callgsubr
          endchar
        </CharString>
        <CharString name="dieresistonosgreek">
          535 1281 rmoveto
          77 63 64 79 80 -63 64 -77 146 callsubr
          710 94 callsubr
          -514 -5 rmoveto
          193 130 callsubr
        </CharString>
        <CharString name="divide">
          1250 526 rmoveto
          40 232 rlineto
          -1056 hlineto
          -40 -232 rlineto
          595 346 rmoveto
          99 67 68 98 98 -67 66 -99 -97 -67 -66 -98 -98 67 -68 97 hvcurveto
          -95 -791 rmoveto
          99 67 67 98 98 -67 67 -99 -97 -67 -67 -98 -98 67 -67 97 hvcurveto
          endchar
        </CharString>
        <CharString name="djecyrillic">
          565 920 rmoveto
          60 336 rlineto
          260 hlineto
          25 144 rlineto
          -259 hlineto
          22 123 165 callsubr
          -22 -123 rlineto
          -126 hlineto
          -25 -144 rlineto
          126 hlineto
          -221 -1256 rlineto
          273 hlineto
          114 648 rlineto
          154 28 103 82 126 hhcurveto
          113 79 -77 -101 -26 -4 -28 -5 -31 hvcurveto
          -44 -248 rlineto
          -6 hlineto
          -65 -404 rlineto
          -90 -17 -53 -39 -102 hhcurveto
          -15 -16 1 2 -7 hvcurveto
          -36 -212 rlineto
          -3 12 39 -3 27 hhcurveto
          247 156 117 218 37 hvcurveto
          6 40 rlineto
          1 hlineto
          114 656 rlineto
          9 53 5 41 35 vvcurveto
          205 -137 133 -207 -145 -125 -79 -124 -62 vhcurveto
          endchar
        </CharString>
        <CharString name="dlinebelow">
          -97 callgsubr
          172 -1306 -95 callsubr
          endchar
        </CharString>
        <CharString name="dollar">
          800 591 rmoveto
          147 -54 51 -53 -94 vvcurveto
          -122 -109 -86 -162 -7 vhcurveto
          -9 699 rmoveto
          -114 50 -51 61 83 vvcurveto
          111 92 76 142 12 vhcurveto
          541 -214 rmoveto
          1 6 1 21 13 vvcurveto
          182 -158 151 -218 41 vhcurveto
          21 117 rlineto
          -132 hlineto
          -19 -106 rlineto
          -310 -4 -218 -180 -251 vvcurveto
          -188 113 -134 227 -75 vhcurveto
          39 -13 -79 -448 rlineto
          -124 26 -77 75 102 vvcurveto
          2 0 8 1 4 vhcurveto
          -242 hlineto
          -1 -2 -1 -33 -8 vvcurveto
          -193 168 -152 239 -39 vhcurveto
          -20 -116 rlineto
          132 hlineto
          19 106 rlineto
          331 3 228 184 264 vvcurveto
          191 -109 129 -231 75 vhcurveto
          -67 20 75 426 rlineto
          99 -28 68 -74 -91 vvcurveto
          -4 0 -7 -1 vhcurveto
          endchar
        </CharString>
        <CharString name="dotaccent">
          887 1282 -38 callsubr
        </CharString>
        <CharString name="dotaccentcmb">
          887 1282 -38 callsubr
        </CharString>
        <CharString name="dotaccentcmb.short">
          945 1597 -53 callsubr
          endchar
        </CharString>
        <CharString name="dotbelowcmb">
          73 callgsubr
          endchar
        </CharString>
        <CharString name="dotlessi">
          1120 hmoveto
          -94 callgsubr
          endchar
        </CharString>
        <CharString name="dotlessj">
          1099 1103 -44 callsubr
          endchar
        </CharString>
        <CharString name="dotmacroncmb">
          1296 1722 -95 callsubr
          307 -463 -92 callgsubr
          endchar
        </CharString>
        <CharString name="dotmacroncmb.short">
          929 114 callsubr
          28 167 240 callgsubr
          endchar
        </CharString>
        <CharString name="dzecyrillic">
          321 771 rmoveto
          60 callgsubr
          vhcurveto
          145 -47 rlineto
          -102 callgsubr
          hvcurveto
          endchar
        </CharString>
        <CharString name="dzhecyrillic">
          1348 1103 rmoveto
          -274 hlineto
          -158 -885 rlineto
          -428 hlineto
          157 885 rlineto
          -274 -55 callsubr
          363 73 callsubr
          250 hlineto
          50 285 rlineto
          363 hlineto
          endchar
        </CharString>
        <CharString name="e">
          -107 callsubr
          endchar
        </CharString>
        <CharString name="eacute">
          965 -63 callsubr
          214 -986 -77 callgsubr
        </CharString>
        <CharString name="ebreve">
          -107 callsubr
          -302 920 4 callsubr
          -196 hlineto
          -195 -36 159 238 callgsubr
        </CharString>
        <CharString name="ecaron">
          -107 callsubr
          -176 986 31 callgsubr
        </CharString>
        <CharString name="ecedilla">
          535 661 -49 callgsubr
        </CharString>
        <CharString name="ecedillabreve">
          1096 1584 rmoveto
          -65 callsubr
          138 callgsubr
          177 callsubr
          144 210 20 hvcurveto
          -762 -923 -49 callgsubr
        </CharString>
        <CharString name="ecircumflex">
          -107 callsubr
          -402 1319 37 callgsubr
        </CharString>
        <CharString name="ecircumflexacute">
          -107 callsubr
          -39 1339 rmoveto
          223 hlineto
          294 335 141 callsubr
          -618 -349 rmoveto
          -330 -91 callsubr
          endchar
        </CharString>
        <CharString name="ecircumflexbelow">
          -107 callsubr
          -695 -470 rmoveto
          -331 -91 callsubr
          endchar
        </CharString>
        <CharString name="ecircumflexdotbelow">
          -107 callsubr
          -402 1319 -15 callsubr
          -465 -2105 -92 callgsubr
          endchar
        </CharString>
        <CharString name="ecircumflexgrave">
          -107 callsubr
          265 1339 rmoveto
          -139 335 rlineto
          -253 209 callgsubr
          -451 -14 rmoveto
          -330 -91 callsubr
          endchar
        </CharString>
        <CharString name="ecircumflexhookabove">
          -107 callsubr
          -401 1325 rmoveto
          -330 -91 callsubr
          8 218 rmoveto
          16 35 35 7 40 hhcurveto
          62 40 -30 -45 -50 -39 -37 -76 215 callgsubr
          114 vvcurveto
          121 -92 78 193 callgsubr
          -9 -19 -39 vhcurveto
          endchar
        </CharString>
        <CharString name="ecircumflextilde">
          -107 callsubr
          -356 1538 rmoveto
          83 36 -128 162 hhcurveto
          138 113 123 169 18 hvcurveto
          -185 hlineto
          -84 -14 -27 -37 -44 -84 -36 127 -162 hhcurveto
          -141 -109 -119 -177 -20 hvcurveto
          185 hlineto
          86 15 27 40 45 hhcurveto
          -45 -213 rmoveto
          -330 -91 callsubr
          endchar
        </CharString>
        <CharString name="ecyrillic">
          -22 callgsubr
          endchar
        </CharString>
        <CharString name="edblgrave">
          1019 0 callgsubr
          179 -986 -77 callgsubr
        </CharString>
        <CharString name="edieresis">
          -107 callsubr
          -513 984 8 callsubr
        </CharString>
        <CharString name="edotaccent">
          -107 callsubr
          -291 972 21 callgsubr
          endchar
        </CharString>
        <CharString name="edotbelow">
          -107 callsubr
          -579 -786 -92 callgsubr
          endchar
        </CharString>
        <CharString name="efcyrillic">
          440 -365 rmoveto
          258 hlineto
          63 353 rlineto
          9 hlineto
          291 8 212 173 56 325 3 18 7 42 1 18 rrcurveto
          5 35 3 30 28 vvcurveto
          256 -147 176 -242 24 vhcurveto
          60 338 242 callgsubr
          -60 -335 rlineto
          -9 hlineto
          -288 -8 -217 -182 -55 -320 -3 -20 -8 -43 -1 -19 rrcurveto
          -5 -35 -3 -31 -29 vvcurveto
          -256 147 -172 242 -23 vhcurveto
          -136 602 rmoveto
          36 201 115 126 150 4 rrcurveto
          7 hlineto
          -132 -731 rlineto
          -127 5 -63 109 154 vvcurveto
          23 1 25 4 26 vhcurveto
          1 14 5 30 3 14 rrcurveto
          553 331 rmoveto
          127 -5 63 -112 -153 vvcurveto
          -23 -1 -25 -4 -25 vhcurveto
          -1 -14 -5 -29 -2 -13 -36 -204 -114 -124 -151 -4 rrcurveto
          -7 hlineto
          endchar
        </CharString>
        <CharString name="egrave">
          -107 callsubr
          -149 986 5 callgsubr
          endchar
        </CharString>
        <CharString name="ehookabove">
          -107 callsubr
          -473 1203 rmoveto
          16 35 35 7 41 hhcurveto
          61 -9 callsubr
        </CharString>
        <CharString name="eight">
          818 855 rmoveto
          -133 -93 82 117 121 95 84 136 134 92 -81 -119 -119 -96 -85 -135 hvcurveto
          -113 -666 rmoveto
          -160 -109 91 134 134 112 95 160 160 110 -92 -134 -136 -112 -92 -161 hvcurveto
          620 899 rmoveto
          226 -207 159 -295 -299 -210 -163 -233 -132 83 -111 144 -59 vhcurveto
          -4 -17 rlineto
          -228 -16 -166 -157 -199 vvcurveto
          -249 226 -167 335 339 226 170 257 169 -101 132 -168 56 vhcurveto
          3 17 rlineto
          183 11 139 137 169 vvcurveto
          endchar
        </CharString>
        <CharString name="einvertedbreve">
          -107 callsubr
          -285 1304 rmoveto
          -232 -174 -145 -210 -20 -7 callsubr
        </CharString>
</ttFont>
